<svg width="328" height="193" viewBox="0 0 328 193" fill="none" xmlns="http://www.w3.org/2000/svg">
<rect x="0.5" y="0.5" width="327" height="192" fill="white"/>
<g clip-path="url(#clip0_993_646)">
<g clip-path="url(#clip1_993_646)">
<path d="M55.0637 68.9949C54.2527 68.1802 54.6755 68.4099 52.7192 67.8839C51.8316 67.6449 51.0513 67.1855 50.3457 66.6352L46.1112 77.0639C45.7015 78.0736 46.4668 79.1705 47.5513 79.1292L52.4691 78.9408L55.8515 82.5296C56.5981 83.3208 57.9085 83.0742 58.3183 82.0646L63.1763 70.1002C62.1645 70.6664 61.0417 70.9983 59.8807 70.9983C58.0607 70.9983 56.3508 70.2867 55.0637 68.9949ZM81.7272 77.0639L77.4927 66.6352C76.7871 67.1864 76.0068 67.6449 75.1192 67.8839C73.1527 68.4127 73.5839 68.1821 72.7747 68.9949C71.4876 70.2867 69.7768 70.9983 67.9568 70.9983C66.7957 70.9983 65.6729 70.6655 64.6612 70.1002L69.5192 82.0646C69.9289 83.0742 71.2403 83.3208 71.986 82.5296L75.3693 78.9408L80.2871 79.1292C81.3716 79.1705 82.1369 78.0727 81.7272 77.0639ZM70.5459 66.8733C71.972 65.4155 72.1353 65.5411 74.1663 64.9852C75.4627 64.6299 76.4763 63.5939 76.8235 62.2683C77.5216 59.6058 77.3405 59.9274 79.2455 57.9792C80.1947 57.0089 80.5652 55.5942 80.218 54.2686C79.5208 51.608 79.5199 51.9792 80.218 49.3158C80.5652 47.9902 80.1947 46.5755 79.2455 45.6052C77.3405 43.6571 77.5216 43.9777 76.8235 41.3161C76.4763 39.9905 75.4627 38.9546 74.1663 38.5993C71.5641 37.8858 71.8777 38.0724 69.9709 36.1233C69.0217 35.153 67.6376 34.7733 66.3412 35.1286C63.74 35.8411 64.1031 35.8421 61.4972 35.1286C60.2008 34.7733 58.8167 35.1521 57.8675 36.1233C55.9625 38.0714 56.2761 37.8858 53.6731 38.5993C52.3767 38.9546 51.3631 39.9905 51.0159 41.3161C50.3187 43.9777 50.4988 43.6571 48.5939 45.6052C47.6447 46.5755 47.2732 47.9902 47.6213 49.3158C48.3185 51.9746 48.3195 51.6033 47.6213 54.2677C47.2741 55.5933 47.6447 57.008 48.5939 57.9792C50.4988 59.9274 50.3177 59.6058 51.0159 62.2683C51.3631 63.5939 52.3767 64.6299 53.6731 64.9852C55.7619 65.5571 55.9177 65.4671 57.2925 66.8733C58.5273 68.1361 60.4509 68.3621 61.9349 67.4189C62.5284 67.0405 63.2168 66.8396 63.9197 66.8396C64.6226 66.8396 65.311 67.0405 65.9044 67.4189C67.3875 68.3621 69.3111 68.1361 70.5459 66.8733ZM55.1141 51.4946C55.1141 46.523 59.0565 42.4927 63.9192 42.4927C68.7819 42.4927 72.7243 46.523 72.7243 51.4946C72.7243 56.4661 68.7819 60.4964 63.9192 60.4964C59.0565 60.4964 55.1141 56.4661 55.1141 51.4946Z" fill="#00A0C1"/>
</g>
<path d="M107.864 60.248L109.848 53.816H112.456L114.424 60.248L116.648 53.816H119.352L115.448 65H113.592L111.144 57.224L108.712 65H106.856L102.952 53.816H105.656L107.864 60.248ZM127.989 63.752C127.018 64.6693 125.877 65.128 124.565 65.128C123.264 65.128 122.186 64.728 121.333 63.928C120.48 63.1173 120.053 62.0347 120.053 60.68C120.053 59.3253 120.485 58.248 121.349 57.448C122.224 56.648 123.253 56.248 124.437 56.248C125.621 56.248 126.624 56.6053 127.445 57.32C128.277 58.0347 128.693 59.016 128.693 60.264V61.544H122.421C122.496 62.0133 122.741 62.3973 123.157 62.696C123.573 62.9947 124.042 63.144 124.565 63.144C125.408 63.144 126.101 62.8613 126.645 62.296L127.989 63.752ZM126.261 59.832C126.208 59.32 126.016 58.9253 125.685 58.648C125.354 58.3707 124.949 58.232 124.469 58.232C124 58.232 123.568 58.376 123.173 58.664C122.778 58.952 122.549 59.3413 122.485 59.832H126.261ZM135.484 56.248C136.529 56.248 137.441 56.6587 138.22 57.48C138.998 58.2907 139.388 59.336 139.388 60.616C139.388 61.896 138.988 62.968 138.188 63.832C137.388 64.696 136.476 65.128 135.452 65.128C134.438 65.128 133.596 64.7067 132.924 63.864V65H130.524V53.128H132.924V57.352C133.585 56.616 134.438 56.248 135.484 56.248ZM132.892 60.712C132.892 61.4053 133.084 61.976 133.468 62.424C133.862 62.8613 134.337 63.08 134.892 63.08C135.446 63.08 135.932 62.8613 136.348 62.424C136.764 61.976 136.972 61.4053 136.972 60.712C136.972 60.0187 136.769 59.4373 136.364 58.968C135.958 58.4987 135.473 58.264 134.908 58.264C134.342 58.264 133.862 58.4987 133.468 58.968C133.084 59.4267 132.892 60.008 132.892 60.712ZM149.791 53.816C151.785 53.816 153.316 54.3067 154.383 55.288C155.449 56.2587 155.983 57.6133 155.983 59.352C155.983 61.0907 155.46 62.4667 154.415 63.48C153.38 64.4933 151.796 65 149.663 65H145.839V53.816H149.791ZM149.919 62.792C151.06 62.792 151.935 62.504 152.543 61.928C153.161 61.352 153.471 60.5147 153.471 59.416C153.471 58.3173 153.161 57.4747 152.543 56.888C151.935 56.2907 150.996 55.992 149.727 55.992H148.335V62.792H149.919ZM165.451 63.752C164.481 64.6693 163.339 65.128 162.027 65.128C160.726 65.128 159.649 64.728 158.795 63.928C157.942 63.1173 157.515 62.0347 157.515 60.68C157.515 59.3253 157.947 58.248 158.811 57.448C159.686 56.648 160.715 56.248 161.899 56.248C163.083 56.248 164.086 56.6053 164.907 57.32C165.739 58.0347 166.155 59.016 166.155 60.264V61.544H159.883C159.958 62.0133 160.203 62.3973 160.619 62.696C161.035 62.9947 161.505 63.144 162.027 63.144C162.87 63.144 163.563 62.8613 164.107 62.296L165.451 63.752ZM163.723 59.832C163.67 59.32 163.478 58.9253 163.147 58.648C162.817 58.3707 162.411 58.232 161.931 58.232C161.462 58.232 161.03 58.376 160.635 58.664C160.241 58.952 160.011 59.3413 159.947 59.832H163.723ZM170.181 65L166.773 56.376H169.269L171.413 61.8L173.557 56.376H176.053L172.645 65H170.181ZM184.792 63.752C183.821 64.6693 182.68 65.128 181.368 65.128C180.067 65.128 178.989 64.728 178.136 63.928C177.283 63.1173 176.856 62.0347 176.856 60.68C176.856 59.3253 177.288 58.248 178.152 57.448C179.027 56.648 180.056 56.248 181.24 56.248C182.424 56.248 183.427 56.6053 184.248 57.32C185.08 58.0347 185.496 59.016 185.496 60.264V61.544H179.224C179.299 62.0133 179.544 62.3973 179.96 62.696C180.376 62.9947 180.845 63.144 181.368 63.144C182.211 63.144 182.904 62.8613 183.448 62.296L184.792 63.752ZM183.064 59.832C183.011 59.32 182.819 58.9253 182.488 58.648C182.157 58.3707 181.752 58.232 181.272 58.232C180.803 58.232 180.371 58.376 179.976 58.664C179.581 58.952 179.352 59.3413 179.288 59.832H183.064ZM189.727 65H187.327V53.128H189.727V65ZM194.019 60.696C194.019 61.4 194.216 61.976 194.611 62.424C195.016 62.8613 195.528 63.08 196.147 63.08C196.776 63.08 197.288 62.8613 197.683 62.424C198.088 61.976 198.291 61.4 198.291 60.696C198.291 59.992 198.088 59.416 197.683 58.968C197.288 58.52 196.776 58.296 196.147 58.296C195.528 58.296 195.016 58.52 194.611 58.968C194.216 59.416 194.019 59.992 194.019 60.696ZM200.707 60.696C200.707 61.944 200.275 62.9947 199.411 63.848C198.547 64.7013 197.459 65.128 196.147 65.128C194.845 65.128 193.763 64.7013 192.899 63.848C192.035 62.9947 191.603 61.944 191.603 60.696C191.603 59.448 192.035 58.3973 192.899 57.544C193.763 56.68 194.845 56.248 196.147 56.248C197.459 56.248 198.547 56.68 199.411 57.544C200.275 58.3973 200.707 59.448 200.707 60.696ZM207.597 56.248C208.6 56.248 209.49 56.6693 210.269 57.512C211.058 58.344 211.453 59.3947 211.453 60.664C211.453 61.9333 211.058 62.9947 210.269 63.848C209.49 64.7013 208.573 65.128 207.517 65.128C206.472 65.128 205.629 64.7067 204.989 63.864V68.104H202.589V56.392H204.989V57.352C205.725 56.616 206.594 56.248 207.597 56.248ZM204.957 60.712C204.957 61.4053 205.149 61.976 205.533 62.424C205.928 62.8613 206.402 63.08 206.957 63.08C207.512 63.08 207.997 62.8613 208.413 62.424C208.829 61.976 209.037 61.4053 209.037 60.712C209.037 60.0187 208.834 59.4373 208.429 58.968C208.024 58.4987 207.538 58.264 206.973 58.264C206.408 58.264 205.928 58.4987 205.533 58.968C205.149 59.4267 204.957 60.008 204.957 60.712ZM221.249 60.36V65H218.833V60.296C218.833 59.6133 218.727 59.112 218.513 58.792C218.311 58.472 217.975 58.312 217.505 58.312C217.047 58.312 216.636 58.488 216.273 58.84C215.921 59.1813 215.745 59.688 215.745 60.36V65H213.345V56.392H215.745V57.368C216.407 56.6213 217.164 56.248 218.017 56.248C218.561 56.248 219.052 56.408 219.489 56.728C219.937 57.048 220.273 57.4373 220.497 57.896C220.828 57.3733 221.271 56.968 221.825 56.68C222.391 56.392 222.956 56.248 223.521 56.248C224.535 56.248 225.351 56.552 225.969 57.16C226.588 57.7573 226.897 58.6267 226.897 59.768V65H224.481V60.296C224.481 58.9733 223.996 58.312 223.025 58.312C222.545 58.312 222.129 58.488 221.777 58.84C221.425 59.1813 221.249 59.688 221.249 60.36ZM236.636 63.752C235.665 64.6693 234.524 65.128 233.212 65.128C231.91 65.128 230.833 64.728 229.98 63.928C229.126 63.1173 228.7 62.0347 228.7 60.68C228.7 59.3253 229.132 58.248 229.996 57.448C230.87 56.648 231.9 56.248 233.084 56.248C234.268 56.248 235.27 56.6053 236.092 57.32C236.924 58.0347 237.34 59.016 237.34 60.264V61.544H231.068C231.142 62.0133 231.388 62.3973 231.804 62.696C232.22 62.9947 232.689 63.144 233.212 63.144C234.054 63.144 234.748 62.8613 235.292 62.296L236.636 63.752ZM234.908 59.832C234.854 59.32 234.662 58.9253 234.332 58.648C234.001 58.3707 233.596 58.232 233.116 58.232C232.646 58.232 232.214 58.376 231.82 58.664C231.425 58.952 231.196 59.3413 231.132 59.832H234.908ZM241.57 60.2V65H239.17V56.392H241.57V57.352C242.296 56.616 243.112 56.248 244.018 56.248C244.925 56.248 245.682 56.568 246.29 57.208C246.909 57.848 247.218 58.7013 247.218 59.768V65H244.818V60.136C244.818 58.8133 244.333 58.152 243.362 58.152C242.882 58.152 242.461 58.328 242.098 58.68C241.746 59.0213 241.57 59.528 241.57 60.2ZM252.228 58.12V61.976C252.228 62.3067 252.313 62.568 252.484 62.76C252.655 62.9413 252.857 63.032 253.092 63.032C253.54 63.032 253.919 62.8293 254.228 62.424L255.124 64.104C254.377 64.7867 253.588 65.128 252.756 65.128C251.935 65.128 251.236 64.856 250.66 64.312C250.095 63.768 249.812 63.0267 249.812 62.088V58.12H248.804V56.392H249.812V53.816H252.228V56.392H254.308V58.12H252.228Z" fill="#252B42"/>
</g>
<path d="M45.026 111.6C44.746 111.824 44.368 111.95 43.976 111.95C43.234 111.95 42.814 111.502 42.814 110.704V106.686H44.942V105.58H42.814V103.956H41.47V105.58H40.21V106.686H41.47V110.76C41.47 112.258 42.324 113.084 43.822 113.084C44.424 113.084 45.04 112.916 45.446 112.566L45.026 111.6ZM51.2329 105.51C50.0989 105.51 49.1749 105.916 48.6149 106.63V102.612H47.2709V113H48.6149V109.178C48.6149 107.568 49.5389 106.714 50.9669 106.714C52.2409 106.714 52.9689 107.428 52.9689 108.884V113H54.3129V108.73C54.3129 106.546 53.0389 105.51 51.2329 105.51ZM63.7472 109.332C63.7472 107.05 62.2212 105.51 60.0792 105.51C57.9372 105.51 56.3552 107.092 56.3552 109.29C56.3552 111.502 57.9512 113.084 60.3452 113.084C61.5772 113.084 62.5992 112.664 63.2712 111.88L62.5292 111.012C61.9832 111.614 61.2552 111.908 60.3872 111.908C58.9172 111.908 57.8672 111.04 57.6992 109.738H63.7192C63.7332 109.612 63.7472 109.444 63.7472 109.332ZM60.0792 106.644C61.3812 106.644 62.3192 107.526 62.4592 108.772H57.6992C57.8392 107.512 58.7912 106.644 60.0792 106.644ZM75.4852 105.58V106.756C74.8832 105.93 73.9312 105.51 72.8392 105.51C70.6692 105.51 69.0872 107.022 69.0872 109.29C69.0872 111.572 70.6692 113.084 72.8392 113.084C73.8892 113.084 74.8132 112.678 75.4292 111.88V115.716H76.7732V105.58H75.4852ZM72.9512 111.908C71.5232 111.908 70.4452 110.872 70.4452 109.29C70.4452 107.722 71.5232 106.686 72.9512 106.686C74.3652 106.686 75.4432 107.722 75.4432 109.29C75.4432 110.872 74.3652 111.908 72.9512 111.908ZM85.0882 105.58V109.416C85.0882 111.012 84.1922 111.88 82.7922 111.88C81.5182 111.88 80.7902 111.152 80.7902 109.696V105.58H79.4462V109.85C79.4462 112.034 80.7202 113.084 82.6382 113.084C83.6882 113.084 84.6122 112.65 85.1582 111.88V113H86.4322V105.58H85.0882ZM89.8628 104.152C90.3948 104.152 90.7728 103.76 90.7728 103.256C90.7728 102.78 90.3808 102.402 89.8628 102.402C89.3448 102.402 88.9528 102.794 88.9528 103.284C88.9528 103.774 89.3448 104.152 89.8628 104.152ZM89.1908 113H90.5348V105.58H89.1908V113ZM96.535 113.084C97.865 113.084 98.971 112.524 99.559 111.488L98.537 110.844C98.061 111.572 97.333 111.908 96.521 111.908C95.065 111.908 93.973 110.9 93.973 109.29C93.973 107.708 95.065 106.686 96.521 106.686C97.333 106.686 98.061 107.022 98.537 107.75L99.559 107.092C98.971 106.056 97.865 105.51 96.535 105.51C94.253 105.51 92.615 107.078 92.615 109.29C92.615 111.502 94.253 113.084 96.535 113.084ZM107.073 113H108.725L105.295 108.646L108.417 105.58H106.793L102.747 109.276V102.612H101.403V113H102.747V110.97L104.287 109.542L107.073 113ZM116.906 103.634C117.298 103.634 117.662 103.774 117.942 103.984L118.348 102.962C117.97 102.668 117.41 102.528 116.836 102.528C115.254 102.528 114.386 103.48 114.386 104.922V105.58H113.126V106.686H114.386V113H115.73V106.686H117.858V105.58H115.702V104.936C115.702 104.082 116.108 103.634 116.906 103.634ZM122.394 113.084C124.62 113.084 126.244 111.502 126.244 109.29C126.244 107.078 124.62 105.51 122.394 105.51C120.168 105.51 118.53 107.078 118.53 109.29C118.53 111.502 120.168 113.084 122.394 113.084ZM122.394 111.908C120.966 111.908 119.888 110.872 119.888 109.29C119.888 107.708 120.966 106.686 122.394 106.686C123.822 106.686 124.886 107.708 124.886 109.29C124.886 110.872 123.822 111.908 122.394 111.908ZM134.315 113L131.361 109.206L134.161 105.58H132.691L130.661 108.254L128.617 105.58H127.119L129.905 109.206L126.979 113H128.477L130.647 110.158L132.789 113H134.315ZM140.683 104.152C141.215 104.152 141.593 103.76 141.593 103.256C141.593 102.78 141.201 102.402 140.683 102.402C140.165 102.402 139.773 102.794 139.773 103.284C139.773 103.774 140.165 104.152 140.683 104.152ZM138.989 115.8C140.515 115.8 141.355 114.848 141.355 113.336V105.58H140.011V113.364C140.011 114.218 139.619 114.666 138.905 114.666C138.471 114.666 138.079 114.54 137.813 114.316L137.379 115.352C137.757 115.66 138.373 115.8 138.989 115.8ZM149.692 105.58V109.416C149.692 111.012 148.796 111.88 147.396 111.88C146.122 111.88 145.394 111.152 145.394 109.696V105.58H144.05V109.85C144.05 112.034 145.324 113.084 147.242 113.084C148.292 113.084 149.216 112.65 149.762 111.88V113H151.036V105.58H149.692ZM163.076 105.51C161.816 105.51 160.78 106.042 160.22 106.882C159.73 105.958 158.778 105.51 157.644 105.51C156.524 105.51 155.614 105.93 155.082 106.686V105.58H153.794V113H155.138V109.178C155.138 107.568 156.02 106.714 157.364 106.714C158.582 106.714 159.282 107.428 159.282 108.884V113H160.626V109.178C160.626 107.568 161.508 106.714 162.852 106.714C164.07 106.714 164.77 107.428 164.77 108.884V113H166.114V108.73C166.114 106.546 164.882 105.51 163.076 105.51ZM172.721 105.51C171.629 105.51 170.677 105.93 170.075 106.756V105.58H168.787V115.716H170.131V111.88C170.747 112.678 171.671 113.084 172.721 113.084C174.891 113.084 176.473 111.572 176.473 109.29C176.473 107.022 174.891 105.51 172.721 105.51ZM172.609 111.908C171.195 111.908 170.117 110.872 170.117 109.29C170.117 107.722 171.195 106.686 172.609 106.686C174.037 106.686 175.115 107.722 175.115 109.29C175.115 110.872 174.037 111.908 172.609 111.908ZM180.658 113.084C182.632 113.084 183.864 112.23 183.864 110.886C183.864 108.002 179.16 109.43 179.16 107.68C179.16 107.092 179.734 106.658 180.91 106.658C181.638 106.658 182.38 106.812 183.052 107.246L183.626 106.182C182.982 105.762 181.89 105.51 180.924 105.51C179.02 105.51 177.83 106.406 177.83 107.736C177.83 110.69 182.52 109.248 182.52 110.914C182.52 111.544 182.002 111.922 180.756 111.922C179.79 111.922 178.782 111.6 178.152 111.152L177.592 112.216C178.208 112.706 179.426 113.084 180.658 113.084ZM192.882 113.084C195.108 113.084 196.732 111.502 196.732 109.29C196.732 107.078 195.108 105.51 192.882 105.51C190.656 105.51 189.018 107.078 189.018 109.29C189.018 111.502 190.656 113.084 192.882 113.084ZM192.882 111.908C191.454 111.908 190.376 110.872 190.376 109.29C190.376 107.708 191.454 106.686 192.882 106.686C194.31 106.686 195.374 107.708 195.374 109.29C195.374 110.872 194.31 111.908 192.882 111.908ZM203.835 105.58L201.231 111.53L198.683 105.58H197.283L200.531 113H201.903L205.151 105.58H203.835ZM213.107 109.332C213.107 107.05 211.581 105.51 209.439 105.51C207.297 105.51 205.715 107.092 205.715 109.29C205.715 111.502 207.311 113.084 209.705 113.084C210.937 113.084 211.959 112.664 212.631 111.88L211.889 111.012C211.343 111.614 210.615 111.908 209.747 111.908C208.277 111.908 207.227 111.04 207.059 109.738H213.079C213.093 109.612 213.107 109.444 213.107 109.332ZM209.439 106.644C210.741 106.644 211.679 107.526 211.819 108.772H207.059C207.199 107.512 208.151 106.644 209.439 106.644ZM216.461 106.826V105.58H215.173V113H216.517V109.304C216.517 107.68 217.413 106.798 218.855 106.798C218.953 106.798 219.051 106.798 219.163 106.812V105.51C217.861 105.51 216.937 105.958 216.461 106.826ZM228.827 111.6C228.547 111.824 228.169 111.95 227.777 111.95C227.035 111.95 226.615 111.502 226.615 110.704V106.686H228.743V105.58H226.615V103.956H225.271V105.58H224.011V106.686H225.271V110.76C225.271 112.258 226.125 113.084 227.623 113.084C228.225 113.084 228.841 112.916 229.247 112.566L228.827 111.6ZM235.034 105.51C233.9 105.51 232.976 105.916 232.416 106.63V102.612H231.072V113H232.416V109.178C232.416 107.568 233.34 106.714 234.768 106.714C236.042 106.714 236.77 107.428 236.77 108.884V113H238.114V108.73C238.114 106.546 236.84 105.51 235.034 105.51ZM247.548 109.332C247.548 107.05 246.022 105.51 243.88 105.51C241.738 105.51 240.156 107.092 240.156 109.29C240.156 111.502 241.752 113.084 244.146 113.084C245.378 113.084 246.4 112.664 247.072 111.88L246.33 111.012C245.784 111.614 245.056 111.908 244.188 111.908C242.718 111.908 241.668 111.04 241.5 109.738H247.52C247.534 109.612 247.548 109.444 247.548 109.332ZM243.88 106.644C245.182 106.644 246.12 107.526 246.26 108.772H241.5C241.64 107.512 242.592 106.644 243.88 106.644ZM253.574 113H254.918V102.612H253.574V113ZM260.386 105.51C259.196 105.51 258.09 105.846 257.32 106.462L257.88 107.47C258.454 106.98 259.35 106.672 260.232 106.672C261.562 106.672 262.22 107.33 262.22 108.464V108.73H260.092C257.88 108.73 257.11 109.71 257.11 110.9C257.11 112.188 258.174 113.084 259.854 113.084C261.016 113.084 261.842 112.692 262.29 112.02V113H263.564V108.52C263.564 106.49 262.416 105.51 260.386 105.51ZM260.078 112.048C259.056 112.048 258.44 111.586 258.44 110.844C258.44 110.214 258.818 109.696 260.148 109.696H262.22V110.732C261.884 111.586 261.086 112.048 260.078 112.048ZM267.259 111.894L271.641 106.462V105.58H265.621V106.686H269.919L265.537 112.132V113H271.753V111.894H267.259ZM278.865 105.58L276.303 111.516L273.713 105.58H272.313L275.589 112.986L275.351 113.504C274.987 114.358 274.581 114.652 273.937 114.652C273.433 114.652 272.971 114.456 272.607 114.106L272.033 115.114C272.495 115.562 273.223 115.8 273.937 115.8C275.071 115.8 275.925 115.31 276.583 113.742L280.181 105.58H278.865ZM46.93 122.612V126.7C46.314 125.902 45.39 125.51 44.34 125.51C42.17 125.51 40.588 127.022 40.588 129.29C40.588 131.558 42.17 133.084 44.34 133.084C45.432 133.084 46.384 132.664 46.986 131.824V133H48.274V122.612H46.93ZM44.452 131.908C43.024 131.908 41.946 130.872 41.946 129.29C41.946 127.708 43.024 126.686 44.452 126.686C45.866 126.686 46.944 127.708 46.944 129.29C46.944 130.872 45.866 131.908 44.452 131.908ZM54.195 133.084C56.421 133.084 58.045 131.502 58.045 129.29C58.045 127.078 56.421 125.51 54.195 125.51C51.969 125.51 50.331 127.078 50.331 129.29C50.331 131.502 51.969 133.084 54.195 133.084ZM54.195 131.908C52.767 131.908 51.689 130.872 51.689 129.29C51.689 127.708 52.767 126.686 54.195 126.686C55.623 126.686 56.687 127.708 56.687 129.29C56.687 130.872 55.623 131.908 54.195 131.908ZM65.9277 125.58V126.728C65.2977 125.916 64.2897 125.51 63.1837 125.51C61.0417 125.51 59.4177 126.952 59.4177 129.094C59.4177 131.236 61.0417 132.692 63.1837 132.692C64.2477 132.692 65.2137 132.314 65.8577 131.544V132.132C65.8577 133.812 65.0597 134.624 63.3097 134.624C62.2177 134.624 61.1397 134.246 60.4537 133.658L59.8097 134.694C60.6217 135.422 61.9937 135.8 63.3517 135.8C65.8717 135.8 67.2017 134.61 67.2017 131.992V125.58H65.9277ZM63.3377 131.516C61.8397 131.516 60.7757 130.522 60.7757 129.094C60.7757 127.652 61.8397 126.686 63.3377 126.686C64.8217 126.686 65.8857 127.652 65.8857 129.094C65.8857 130.522 64.8217 131.516 63.3377 131.516ZM77.6815 131.6C77.4015 131.824 77.0235 131.95 76.6315 131.95C75.8895 131.95 75.4695 131.502 75.4695 130.704V126.686H77.5975V125.58H75.4695V123.956H74.1255V125.58H72.8655V126.686H74.1255V130.76C74.1255 132.258 74.9795 133.084 76.4775 133.084C77.0795 133.084 77.6955 132.916 78.1015 132.566L77.6815 131.6ZM83.8883 125.51C82.7543 125.51 81.8303 125.916 81.2703 126.63V122.612H79.9263V133H81.2703V129.178C81.2703 127.568 82.1943 126.714 83.6223 126.714C84.8963 126.714 85.6243 127.428 85.6243 128.884V133H86.9683V128.73C86.9683 126.546 85.6943 125.51 83.8883 125.51ZM96.4027 129.332C96.4027 127.05 94.8767 125.51 92.7347 125.51C90.5927 125.51 89.0107 127.092 89.0107 129.29C89.0107 131.502 90.6067 133.084 93.0007 133.084C94.2327 133.084 95.2547 132.664 95.9267 131.88L95.1847 131.012C94.6387 131.614 93.9107 131.908 93.0427 131.908C91.5727 131.908 90.5227 131.04 90.3547 129.738H96.3747C96.3887 129.612 96.4027 129.444 96.4027 129.332ZM92.7347 126.644C94.0367 126.644 94.9747 127.526 95.1147 128.772H90.3547C90.4947 127.512 91.4467 126.644 92.7347 126.644ZM108.141 125.58V126.756C107.539 125.93 106.587 125.51 105.495 125.51C103.325 125.51 101.743 127.022 101.743 129.29C101.743 131.572 103.325 133.084 105.495 133.084C106.545 133.084 107.469 132.678 108.085 131.88V135.716H109.429V125.58H108.141ZM105.607 131.908C104.179 131.908 103.101 130.872 103.101 129.29C103.101 127.722 104.179 126.686 105.607 126.686C107.021 126.686 108.099 127.722 108.099 129.29C108.099 130.872 107.021 131.908 105.607 131.908ZM117.744 125.58V129.416C117.744 131.012 116.848 131.88 115.448 131.88C114.174 131.88 113.446 131.152 113.446 129.696V125.58H112.102V129.85C112.102 132.034 113.376 133.084 115.294 133.084C116.344 133.084 117.268 132.65 117.814 131.88V133H119.088V125.58H117.744ZM122.518 124.152C123.05 124.152 123.428 123.76 123.428 123.256C123.428 122.78 123.036 122.402 122.518 122.402C122 122.402 121.608 122.794 121.608 123.284C121.608 123.774 122 124.152 122.518 124.152ZM121.846 133H123.19V125.58H121.846V133ZM129.19 133.084C130.52 133.084 131.626 132.524 132.214 131.488L131.192 130.844C130.716 131.572 129.988 131.908 129.176 131.908C127.72 131.908 126.628 130.9 126.628 129.29C126.628 127.708 127.72 126.686 129.176 126.686C129.988 126.686 130.716 127.022 131.192 127.75L132.214 127.092C131.626 126.056 130.52 125.51 129.19 125.51C126.908 125.51 125.27 127.078 125.27 129.29C125.27 131.502 126.908 133.084 129.19 133.084ZM139.729 133H141.381L137.951 128.646L141.073 125.58H139.449L135.403 129.276V122.612H134.059V133H135.403V130.97L136.943 129.542L139.729 133ZM149.561 123.634C149.953 123.634 150.317 123.774 150.597 123.984L151.003 122.962C150.625 122.668 150.065 122.528 149.491 122.528C147.909 122.528 147.041 123.48 147.041 124.922V125.58H145.781V126.686H147.041V133H148.385V126.686H150.513V125.58H148.357V124.936C148.357 124.082 148.763 123.634 149.561 123.634ZM155.05 133.084C157.276 133.084 158.9 131.502 158.9 129.29C158.9 127.078 157.276 125.51 155.05 125.51C152.824 125.51 151.186 127.078 151.186 129.29C151.186 131.502 152.824 133.084 155.05 133.084ZM155.05 131.908C153.622 131.908 152.544 130.872 152.544 129.29C152.544 127.708 153.622 126.686 155.05 126.686C156.478 126.686 157.542 127.708 157.542 129.29C157.542 130.872 156.478 131.908 155.05 131.908ZM166.97 133L164.016 129.206L166.816 125.58H165.346L163.316 128.254L161.272 125.58H159.774L162.56 129.206L159.634 133H161.132L163.302 130.158L165.444 133H166.97ZM173.339 124.152C173.871 124.152 174.249 123.76 174.249 123.256C174.249 122.78 173.857 122.402 173.339 122.402C172.821 122.402 172.429 122.794 172.429 123.284C172.429 123.774 172.821 124.152 173.339 124.152ZM171.645 135.8C173.171 135.8 174.011 134.848 174.011 133.336V125.58H172.667V133.364C172.667 134.218 172.275 134.666 171.561 134.666C171.127 134.666 170.735 134.54 170.469 134.316L170.035 135.352C170.413 135.66 171.029 135.8 171.645 135.8ZM182.347 125.58V129.416C182.347 131.012 181.451 131.88 180.051 131.88C178.777 131.88 178.049 131.152 178.049 129.696V125.58H176.705V129.85C176.705 132.034 177.979 133.084 179.897 133.084C180.947 133.084 181.871 132.65 182.417 131.88V133H183.691V125.58H182.347ZM195.732 125.51C194.472 125.51 193.436 126.042 192.876 126.882C192.386 125.958 191.434 125.51 190.3 125.51C189.18 125.51 188.27 125.93 187.738 126.686V125.58H186.45V133H187.794V129.178C187.794 127.568 188.676 126.714 190.02 126.714C191.238 126.714 191.938 127.428 191.938 128.884V133H193.282V129.178C193.282 127.568 194.164 126.714 195.508 126.714C196.726 126.714 197.426 127.428 197.426 128.884V133H198.77V128.73C198.77 126.546 197.538 125.51 195.732 125.51ZM205.377 125.51C204.285 125.51 203.333 125.93 202.731 126.756V125.58H201.443V135.716H202.787V131.88C203.403 132.678 204.327 133.084 205.377 133.084C207.547 133.084 209.129 131.572 209.129 129.29C209.129 127.022 207.547 125.51 205.377 125.51ZM205.265 131.908C203.851 131.908 202.773 130.872 202.773 129.29C202.773 127.722 203.851 126.686 205.265 126.686C206.693 126.686 207.771 127.722 207.771 129.29C207.771 130.872 206.693 131.908 205.265 131.908ZM213.314 133.084C215.288 133.084 216.52 132.23 216.52 130.886C216.52 128.002 211.816 129.43 211.816 127.68C211.816 127.092 212.39 126.658 213.566 126.658C214.294 126.658 215.036 126.812 215.708 127.246L216.282 126.182C215.638 125.762 214.546 125.51 213.58 125.51C211.676 125.51 210.486 126.406 210.486 127.736C210.486 130.69 215.176 129.248 215.176 130.914C215.176 131.544 214.658 131.922 213.412 131.922C212.446 131.922 211.438 131.6 210.808 131.152L210.248 132.216C210.864 132.706 212.082 133.084 213.314 133.084ZM225.537 133.084C227.763 133.084 229.387 131.502 229.387 129.29C229.387 127.078 227.763 125.51 225.537 125.51C223.311 125.51 221.673 127.078 221.673 129.29C221.673 131.502 223.311 133.084 225.537 133.084ZM225.537 131.908C224.109 131.908 223.031 130.872 223.031 129.29C223.031 127.708 224.109 126.686 225.537 126.686C226.965 126.686 228.029 127.708 228.029 129.29C228.029 130.872 226.965 131.908 225.537 131.908ZM236.491 125.58L233.887 131.53L231.339 125.58H229.939L233.187 133H234.559L237.807 125.58H236.491ZM245.762 129.332C245.762 127.05 244.236 125.51 242.094 125.51C239.952 125.51 238.37 127.092 238.37 129.29C238.37 131.502 239.966 133.084 242.36 133.084C243.592 133.084 244.614 132.664 245.286 131.88L244.544 131.012C243.998 131.614 243.27 131.908 242.402 131.908C240.932 131.908 239.882 131.04 239.714 129.738H245.734C245.748 129.612 245.762 129.444 245.762 129.332ZM242.094 126.644C243.396 126.644 244.334 127.526 244.474 128.772H239.714C239.854 127.512 240.806 126.644 242.094 126.644ZM249.116 126.826V125.58H247.828V133H249.172V129.304C249.172 127.68 250.068 126.798 251.51 126.798C251.608 126.798 251.706 126.798 251.818 126.812V125.51C250.516 125.51 249.592 125.958 249.116 126.826ZM261.482 131.6C261.202 131.824 260.824 131.95 260.432 131.95C259.69 131.95 259.27 131.502 259.27 130.704V126.686H261.398V125.58H259.27V123.956H257.926V125.58H256.666V126.686H257.926V130.76C257.926 132.258 258.78 133.084 260.278 133.084C260.88 133.084 261.496 132.916 261.902 132.566L261.482 131.6ZM267.689 125.51C266.555 125.51 265.631 125.916 265.071 126.63V122.612H263.727V133H265.071V129.178C265.071 127.568 265.995 126.714 267.423 126.714C268.697 126.714 269.425 127.428 269.425 128.884V133H270.769V128.73C270.769 126.546 269.495 125.51 267.689 125.51ZM280.203 129.332C280.203 127.05 278.677 125.51 276.535 125.51C274.393 125.51 272.811 127.092 272.811 129.29C272.811 131.502 274.407 133.084 276.801 133.084C278.033 133.084 279.055 132.664 279.727 131.88L278.985 131.012C278.439 131.614 277.711 131.908 276.843 131.908C275.373 131.908 274.323 131.04 274.155 129.738H280.175C280.189 129.612 280.203 129.444 280.203 129.332ZM276.535 126.644C277.837 126.644 278.775 127.526 278.915 128.772H274.155C274.295 127.512 275.247 126.644 276.535 126.644ZM41.274 153H42.618V142.612H41.274V153ZM48.0862 145.51C46.8962 145.51 45.7902 145.846 45.0202 146.462L45.5802 147.47C46.1542 146.98 47.0502 146.672 47.9322 146.672C49.2622 146.672 49.9202 147.33 49.9202 148.464V148.73H47.7922C45.5802 148.73 44.8102 149.71 44.8102 150.9C44.8102 152.188 45.8742 153.084 47.5542 153.084C48.7162 153.084 49.5422 152.692 49.9902 152.02V153H51.2642V148.52C51.2642 146.49 50.1162 145.51 48.0862 145.51ZM47.7782 152.048C46.7562 152.048 46.1402 151.586 46.1402 150.844C46.1402 150.214 46.5182 149.696 47.8482 149.696H49.9202V150.732C49.5842 151.586 48.7862 152.048 47.7782 152.048ZM54.9593 151.894L59.3413 146.462V145.58H53.3213V146.686H57.6193L53.2373 152.132V153H59.4533V151.894H54.9593ZM66.5654 145.58L64.0034 151.516L61.4134 145.58H60.0134L63.2894 152.986L63.0514 153.504C62.6874 154.358 62.2814 154.652 61.6374 154.652C61.1334 154.652 60.6714 154.456 60.3074 154.106L59.7334 155.114C60.1954 155.562 60.9234 155.8 61.6374 155.8C62.7714 155.8 63.6254 155.31 64.2834 153.742L67.8814 145.58H66.5654ZM78.9515 142.612V146.7C78.3355 145.902 77.4115 145.51 76.3615 145.51C74.1915 145.51 72.6095 147.022 72.6095 149.29C72.6095 151.558 74.1915 153.084 76.3615 153.084C77.4535 153.084 78.4055 152.664 79.0075 151.824V153H80.2955V142.612H78.9515ZM76.4735 151.908C75.0455 151.908 73.9675 150.872 73.9675 149.29C73.9675 147.708 75.0455 146.686 76.4735 146.686C77.8875 146.686 78.9655 147.708 78.9655 149.29C78.9655 150.872 77.8875 151.908 76.4735 151.908ZM86.2165 153.084C88.4425 153.084 90.0665 151.502 90.0665 149.29C90.0665 147.078 88.4425 145.51 86.2165 145.51C83.9905 145.51 82.3525 147.078 82.3525 149.29C82.3525 151.502 83.9905 153.084 86.2165 153.084ZM86.2165 151.908C84.7885 151.908 83.7105 150.872 83.7105 149.29C83.7105 147.708 84.7885 146.686 86.2165 146.686C87.6445 146.686 88.7085 147.708 88.7085 149.29C88.7085 150.872 87.6445 151.908 86.2165 151.908ZM97.9492 145.58V146.728C97.3192 145.916 96.3112 145.51 95.2052 145.51C93.0632 145.51 91.4392 146.952 91.4392 149.094C91.4392 151.236 93.0632 152.692 95.2052 152.692C96.2692 152.692 97.2352 152.314 97.8792 151.544V152.132C97.8792 153.812 97.0812 154.624 95.3312 154.624C94.2392 154.624 93.1612 154.246 92.4752 153.658L91.8312 154.694C92.6432 155.422 94.0152 155.8 95.3732 155.8C97.8932 155.8 99.2232 154.61 99.2232 151.992V145.58H97.9492ZM95.3592 151.516C93.8612 151.516 92.7972 150.522 92.7972 149.094C92.7972 147.652 93.8612 146.686 95.3592 146.686C96.8432 146.686 97.9072 147.652 97.9072 149.094C97.9072 150.522 96.8432 151.516 95.3592 151.516Z" fill="#737373"/>
<rect x="0.5" y="0.5" width="327" height="192" stroke="#E8E8E8"/>
<defs>
<clipPath id="clip0_993_646">
<rect width="216" height="48" fill="white" transform="translate(40 35)"/>
</clipPath>
<clipPath id="clip1_993_646">
<rect width="35.84" height="48" fill="white" transform="translate(46 35)"/>
</clipPath>
</defs>
</svg>
