<svg width="328" height="193" viewBox="0 0 328 193" fill="none" xmlns="http://www.w3.org/2000/svg">
<rect x="0.5" y="0.5" width="327" height="192" fill="white"/>
<g clip-path="url(#clip0_993_637)">
<path d="M83.1506 57.2819C82.5751 57.2861 82.005 57.3959 81.4678 57.6061L75.7275 52.8214C75.8687 52.2998 75.9692 51.7587 75.9692 51.1883C75.9692 47.81 73.3026 45.0947 69.9848 45.0947C66.667 45.0947 64.0003 47.81 64.0003 51.1883C64.0003 52.1536 64.2397 53.053 64.6275 53.8622L57.664 62.2421C57.3852 62.189 57.1025 62.1605 56.819 62.1568C56.3905 62.1568 55.9859 62.23 55.5934 62.3372L49.4581 56.09C49.5658 55.6927 49.6376 55.2808 49.6376 54.8445C49.6376 52.1438 47.5024 49.9696 44.8501 49.9696C42.1978 49.9696 40.0625 52.1438 40.0625 54.8445C40.0625 57.5452 42.1978 59.7194 44.8501 59.7194C45.2786 59.7194 45.6831 59.6463 46.0757 59.539L52.2109 65.7862C52.0959 66.1911 52.0355 66.6102 52.0314 67.0317C52.0314 69.7324 54.1667 71.9066 56.819 71.9066C59.4713 71.9066 61.6065 69.7324 61.6065 67.0317C61.6065 66.454 61.4916 65.9105 61.3121 65.3962L68.2852 57.0065C68.8286 57.1674 69.3911 57.2819 69.9848 57.2819C70.9295 57.2766 71.8593 57.0418 72.6969 56.597L78.4396 61.3817C78.3946 61.6377 78.369 61.8968 78.363 62.1568C78.363 64.8575 80.4983 67.0317 83.1506 67.0317C85.8029 67.0317 87.9381 64.8575 87.9381 62.1568C87.9381 59.4561 85.8029 57.2819 83.1506 57.2819Z" fill="#00A0C1"/>
<path d="M112.2 53.816H114.696V65H112.2L106.872 57.992V65H104.376V53.816H106.712L112.2 61.016V53.816ZM124.626 65H122.37V63.96C121.751 64.7387 120.983 65.128 120.066 65.128C119.159 65.128 118.397 64.8667 117.778 64.344C117.159 63.8107 116.85 63.1067 116.85 62.232C116.85 61.3467 117.17 60.6853 117.81 60.248C118.45 59.8107 119.325 59.592 120.434 59.592H122.226V59.544C122.226 58.6267 121.741 58.168 120.77 58.168C120.354 58.168 119.911 58.2533 119.442 58.424C118.983 58.584 118.594 58.7867 118.274 59.032L117.202 57.48C118.333 56.6587 119.623 56.248 121.074 56.248C122.119 56.248 122.973 56.5093 123.634 57.032C124.295 57.5547 124.626 58.3813 124.626 59.512V65ZM122.21 61.72V61.304H120.706C119.746 61.304 119.266 61.6027 119.266 62.2C119.266 62.5093 119.378 62.7493 119.602 62.92C119.837 63.08 120.167 63.16 120.594 63.16C121.021 63.16 121.394 63.032 121.714 62.776C122.045 62.5093 122.21 62.1573 122.21 61.72ZM129.684 58.12V61.976C129.684 62.3067 129.77 62.568 129.94 62.76C130.111 62.9413 130.314 63.032 130.548 63.032C130.996 63.032 131.375 62.8293 131.684 62.424L132.58 64.104C131.834 64.7867 131.044 65.128 130.212 65.128C129.391 65.128 128.692 64.856 128.116 64.312C127.551 63.768 127.268 63.0267 127.268 62.088V58.12H126.26V56.392H127.268V53.816H129.684V56.392H131.764V58.12H129.684ZM136.367 65H133.967V56.392H136.367V65ZM134.159 55.304C133.893 55.0267 133.759 54.6907 133.759 54.296C133.759 53.9013 133.893 53.5707 134.159 53.304C134.437 53.0267 134.773 52.888 135.167 52.888C135.562 52.888 135.893 53.0267 136.159 53.304C136.437 53.5707 136.575 53.9013 136.575 54.296C136.575 54.6907 136.437 55.0267 136.159 55.304C135.893 55.5707 135.562 55.704 135.167 55.704C134.773 55.704 134.437 55.5707 134.159 55.304ZM140.659 60.696C140.659 61.4 140.856 61.976 141.251 62.424C141.656 62.8613 142.168 63.08 142.787 63.08C143.416 63.08 143.928 62.8613 144.323 62.424C144.728 61.976 144.931 61.4 144.931 60.696C144.931 59.992 144.728 59.416 144.323 58.968C143.928 58.52 143.416 58.296 142.787 58.296C142.168 58.296 141.656 58.52 141.251 58.968C140.856 59.416 140.659 59.992 140.659 60.696ZM147.347 60.696C147.347 61.944 146.915 62.9947 146.051 63.848C145.187 64.7013 144.099 65.128 142.787 65.128C141.486 65.128 140.403 64.7013 139.539 63.848C138.675 62.9947 138.243 61.944 138.243 60.696C138.243 59.448 138.675 58.3973 139.539 57.544C140.403 56.68 141.486 56.248 142.787 56.248C144.099 56.248 145.187 56.68 146.051 57.544C146.915 58.3973 147.347 59.448 147.347 60.696ZM151.63 60.2V65H149.23V56.392H151.63V57.352C152.355 56.616 153.171 56.248 154.078 56.248C154.984 56.248 155.742 56.568 156.35 57.208C156.968 57.848 157.278 58.7013 157.278 59.768V65H154.878V60.136C154.878 58.8133 154.392 58.152 153.422 58.152C152.942 58.152 152.52 58.328 152.158 58.68C151.806 59.0213 151.63 59.528 151.63 60.2ZM166.86 65H164.604V63.96C163.986 64.7387 163.218 65.128 162.3 65.128C161.394 65.128 160.631 64.8667 160.012 64.344C159.394 63.8107 159.084 63.1067 159.084 62.232C159.084 61.3467 159.404 60.6853 160.044 60.248C160.684 59.8107 161.559 59.592 162.668 59.592H164.46V59.544C164.46 58.6267 163.975 58.168 163.004 58.168C162.588 58.168 162.146 58.2533 161.676 58.424C161.218 58.584 160.828 58.7867 160.508 59.032L159.436 57.48C160.567 56.6587 161.858 56.248 163.308 56.248C164.354 56.248 165.207 56.5093 165.868 57.032C166.53 57.5547 166.86 58.3813 166.86 59.512V65ZM164.444 61.72V61.304H162.94C161.98 61.304 161.5 61.6027 161.5 62.2C161.5 62.5093 161.612 62.7493 161.836 62.92C162.071 63.08 162.402 63.16 162.828 63.16C163.255 63.16 163.628 63.032 163.948 62.776C164.279 62.5093 164.444 62.1573 164.444 61.72ZM171.548 65H169.148V53.128H171.548V65ZM181.103 58.12V61.976C181.103 62.3067 181.188 62.568 181.359 62.76C181.53 62.9413 181.732 63.032 181.967 63.032C182.415 63.032 182.794 62.8293 183.103 62.424L183.999 64.104C183.252 64.7867 182.463 65.128 181.631 65.128C180.81 65.128 180.111 64.856 179.535 64.312C178.97 63.768 178.687 63.0267 178.687 62.088V58.12H177.679V56.392H178.687V53.816H181.103V56.392H183.183V58.12H181.103ZM187.212 60.696C187.212 61.4 187.41 61.976 187.804 62.424C188.21 62.8613 188.722 63.08 189.34 63.08C189.97 63.08 190.482 62.8613 190.876 62.424C191.282 61.976 191.484 61.4 191.484 60.696C191.484 59.992 191.282 59.416 190.876 58.968C190.482 58.52 189.97 58.296 189.34 58.296C188.722 58.296 188.21 58.52 187.804 58.968C187.41 59.416 187.212 59.992 187.212 60.696ZM193.9 60.696C193.9 61.944 193.468 62.9947 192.604 63.848C191.74 64.7013 190.652 65.128 189.34 65.128C188.039 65.128 186.956 64.7013 186.092 63.848C185.228 62.9947 184.796 61.944 184.796 60.696C184.796 59.448 185.228 58.3973 186.092 57.544C186.956 56.68 188.039 56.248 189.34 56.248C190.652 56.248 191.74 56.68 192.604 57.544C193.468 58.3973 193.9 59.448 193.9 60.696ZM200.791 56.248C201.794 56.248 202.684 56.6693 203.463 57.512C204.252 58.344 204.647 59.3947 204.647 60.664C204.647 61.9333 204.252 62.9947 203.463 63.848C202.684 64.7013 201.767 65.128 200.711 65.128C199.666 65.128 198.823 64.7067 198.183 63.864V68.104H195.783V56.392H198.183V57.352C198.919 56.616 199.788 56.248 200.791 56.248ZM198.151 60.712C198.151 61.4053 198.343 61.976 198.727 62.424C199.122 62.8613 199.596 63.08 200.151 63.08C200.706 63.08 201.191 62.8613 201.607 62.424C202.023 61.976 202.231 61.4053 202.231 60.712C202.231 60.0187 202.028 59.4373 201.623 58.968C201.218 58.4987 200.732 58.264 200.167 58.264C199.602 58.264 199.122 58.4987 198.727 58.968C198.343 59.4267 198.151 60.008 198.151 60.712ZM217.818 53.816V55.976H213.402V57.848C213.733 57.752 214.111 57.704 214.538 57.704C215.615 57.704 216.543 58.0293 217.322 58.68C218.101 59.3307 218.49 60.2107 218.49 61.32C218.49 62.4187 218.085 63.3307 217.274 64.056C216.474 64.7707 215.482 65.128 214.298 65.128C212.783 65.128 211.519 64.568 210.506 63.448L211.818 61.624C211.914 61.72 212.042 61.8373 212.202 61.976C212.362 62.1147 212.655 62.3013 213.082 62.536C213.509 62.76 213.935 62.872 214.362 62.872C214.789 62.872 215.167 62.744 215.498 62.488C215.829 62.232 215.994 61.8533 215.994 61.352C215.994 60.8507 215.813 60.4667 215.45 60.2C215.098 59.9227 214.639 59.784 214.074 59.784C213.509 59.784 212.853 59.9867 212.106 60.392L211.066 59.272V53.816H217.818ZM223.225 56.648C222.873 57.3307 222.697 58.232 222.697 59.352C222.697 60.472 222.873 61.3733 223.225 62.056C223.577 62.7387 224.126 63.08 224.873 63.08C225.62 63.08 226.169 62.7387 226.521 62.056C226.873 61.3733 227.049 60.472 227.049 59.352C227.049 58.232 226.873 57.3307 226.521 56.648C226.169 55.9653 225.62 55.624 224.873 55.624C224.126 55.624 223.577 55.9653 223.225 56.648ZM224.873 65.128C223.326 65.128 222.169 64.6053 221.401 63.56C220.633 62.504 220.249 61.1013 220.249 59.352C220.249 57.592 220.633 56.1893 221.401 55.144C222.169 54.088 223.326 53.56 224.873 53.56C226.42 53.56 227.577 54.088 228.345 55.144C229.113 56.1893 229.497 57.592 229.497 59.352C229.497 61.1013 229.113 62.504 228.345 63.56C227.577 64.6053 226.42 65.128 224.873 65.128ZM238.819 55.896V56.472H240.899V58.2H238.819V65H236.403V58.2H235.395V56.472H236.403V55.944C236.403 55.0053 236.685 54.264 237.251 53.72C237.827 53.1653 238.536 52.888 239.379 52.888C240.232 52.888 241.005 53.208 241.699 53.848L240.835 55.464C240.483 55.0587 240.093 54.856 239.667 54.856C239.421 54.856 239.219 54.9467 239.059 55.128C238.899 55.2987 238.819 55.5547 238.819 55.896ZM244.892 65H242.492V56.392H244.892V65ZM242.684 55.304C242.418 55.0267 242.284 54.6907 242.284 54.296C242.284 53.9013 242.418 53.5707 242.684 53.304C242.962 53.0267 243.298 52.888 243.692 52.888C244.087 52.888 244.418 53.0267 244.684 53.304C244.962 53.5707 245.1 53.9013 245.1 54.296C245.1 54.6907 244.962 55.0267 244.684 55.304C244.418 55.5707 244.087 55.704 243.692 55.704C243.298 55.704 242.962 55.5707 242.684 55.304ZM251.792 58.504C251.077 58.504 250.544 58.76 250.192 59.272C249.84 59.7733 249.664 60.44 249.664 61.272V65H247.264V56.392H249.664V57.528C249.973 57.176 250.357 56.8773 250.816 56.632C251.285 56.3867 251.76 56.2587 252.24 56.248L252.256 58.504H251.792ZM261.846 60.36V65H259.43V60.296C259.43 59.6133 259.324 59.112 259.11 58.792C258.908 58.472 258.572 58.312 258.102 58.312C257.644 58.312 257.233 58.488 256.87 58.84C256.518 59.1813 256.342 59.688 256.342 60.36V65H253.942V56.392H256.342V57.368C257.004 56.6213 257.761 56.248 258.614 56.248C259.158 56.248 259.649 56.408 260.086 56.728C260.534 57.048 260.87 57.4373 261.094 57.896C261.425 57.3733 261.868 56.968 262.422 56.68C262.988 56.392 263.553 56.248 264.118 56.248C265.132 56.248 265.948 56.552 266.566 57.16C267.185 57.7573 267.494 58.6267 267.494 59.768V65H265.078V60.296C265.078 58.9733 264.593 58.312 263.622 58.312C263.142 58.312 262.726 58.488 262.374 58.84C262.022 59.1813 261.846 59.688 261.846 60.36ZM276.257 62.328C276.257 63.1707 275.942 63.848 275.313 64.36C274.694 64.872 273.905 65.128 272.945 65.128C272.305 65.128 271.638 65.016 270.945 64.792C270.251 64.5573 269.627 64.216 269.073 63.768L270.129 62.264C271.025 62.9573 271.979 63.304 272.993 63.304C273.302 63.304 273.547 63.2453 273.729 63.128C273.91 63 274.001 62.8347 274.001 62.632C274.001 62.4293 273.873 62.2427 273.617 62.072C273.371 61.9013 273.009 61.7413 272.529 61.592C272.059 61.4427 271.697 61.3147 271.441 61.208C271.195 61.1013 270.913 60.9467 270.593 60.744C269.942 60.3387 269.617 59.7413 269.617 58.952C269.617 58.152 269.937 57.5013 270.577 57C271.217 56.4987 272.043 56.248 273.057 56.248C274.07 56.248 275.083 56.5893 276.097 57.272L275.201 58.872C274.454 58.36 273.707 58.104 272.961 58.104C272.225 58.104 271.857 58.3067 271.857 58.712C271.857 58.936 271.974 59.112 272.209 59.24C272.443 59.368 272.833 59.5173 273.377 59.688C273.921 59.8587 274.305 59.992 274.529 60.088C274.763 60.1733 275.041 60.312 275.361 60.504C275.958 60.8667 276.257 61.4747 276.257 62.328Z" fill="#252B42"/>
</g>
<path d="M45.026 111.6C44.746 111.824 44.368 111.95 43.976 111.95C43.234 111.95 42.814 111.502 42.814 110.704V106.686H44.942V105.58H42.814V103.956H41.47V105.58H40.21V106.686H41.47V110.76C41.47 112.258 42.324 113.084 43.822 113.084C44.424 113.084 45.04 112.916 45.446 112.566L45.026 111.6ZM51.2329 105.51C50.0989 105.51 49.1749 105.916 48.6149 106.63V102.612H47.2709V113H48.6149V109.178C48.6149 107.568 49.5389 106.714 50.9669 106.714C52.2409 106.714 52.9689 107.428 52.9689 108.884V113H54.3129V108.73C54.3129 106.546 53.0389 105.51 51.2329 105.51ZM63.7472 109.332C63.7472 107.05 62.2212 105.51 60.0792 105.51C57.9372 105.51 56.3552 107.092 56.3552 109.29C56.3552 111.502 57.9512 113.084 60.3452 113.084C61.5772 113.084 62.5992 112.664 63.2712 111.88L62.5292 111.012C61.9832 111.614 61.2552 111.908 60.3872 111.908C58.9172 111.908 57.8672 111.04 57.6992 109.738H63.7192C63.7332 109.612 63.7472 109.444 63.7472 109.332ZM60.0792 106.644C61.3812 106.644 62.3192 107.526 62.4592 108.772H57.6992C57.8392 107.512 58.7912 106.644 60.0792 106.644ZM75.4852 105.58V106.756C74.8832 105.93 73.9312 105.51 72.8392 105.51C70.6692 105.51 69.0872 107.022 69.0872 109.29C69.0872 111.572 70.6692 113.084 72.8392 113.084C73.8892 113.084 74.8132 112.678 75.4292 111.88V115.716H76.7732V105.58H75.4852ZM72.9512 111.908C71.5232 111.908 70.4452 110.872 70.4452 109.29C70.4452 107.722 71.5232 106.686 72.9512 106.686C74.3652 106.686 75.4432 107.722 75.4432 109.29C75.4432 110.872 74.3652 111.908 72.9512 111.908ZM85.0882 105.58V109.416C85.0882 111.012 84.1922 111.88 82.7922 111.88C81.5182 111.88 80.7902 111.152 80.7902 109.696V105.58H79.4462V109.85C79.4462 112.034 80.7202 113.084 82.6382 113.084C83.6882 113.084 84.6122 112.65 85.1582 111.88V113H86.4322V105.58H85.0882ZM89.8628 104.152C90.3948 104.152 90.7728 103.76 90.7728 103.256C90.7728 102.78 90.3808 102.402 89.8628 102.402C89.3448 102.402 88.9528 102.794 88.9528 103.284C88.9528 103.774 89.3448 104.152 89.8628 104.152ZM89.1908 113H90.5348V105.58H89.1908V113ZM96.535 113.084C97.865 113.084 98.971 112.524 99.559 111.488L98.537 110.844C98.061 111.572 97.333 111.908 96.521 111.908C95.065 111.908 93.973 110.9 93.973 109.29C93.973 107.708 95.065 106.686 96.521 106.686C97.333 106.686 98.061 107.022 98.537 107.75L99.559 107.092C98.971 106.056 97.865 105.51 96.535 105.51C94.253 105.51 92.615 107.078 92.615 109.29C92.615 111.502 94.253 113.084 96.535 113.084ZM107.073 113H108.725L105.295 108.646L108.417 105.58H106.793L102.747 109.276V102.612H101.403V113H102.747V110.97L104.287 109.542L107.073 113ZM116.906 103.634C117.298 103.634 117.662 103.774 117.942 103.984L118.348 102.962C117.97 102.668 117.41 102.528 116.836 102.528C115.254 102.528 114.386 103.48 114.386 104.922V105.58H113.126V106.686H114.386V113H115.73V106.686H117.858V105.58H115.702V104.936C115.702 104.082 116.108 103.634 116.906 103.634ZM122.394 113.084C124.62 113.084 126.244 111.502 126.244 109.29C126.244 107.078 124.62 105.51 122.394 105.51C120.168 105.51 118.53 107.078 118.53 109.29C118.53 111.502 120.168 113.084 122.394 113.084ZM122.394 111.908C120.966 111.908 119.888 110.872 119.888 109.29C119.888 107.708 120.966 106.686 122.394 106.686C123.822 106.686 124.886 107.708 124.886 109.29C124.886 110.872 123.822 111.908 122.394 111.908ZM134.315 113L131.361 109.206L134.161 105.58H132.691L130.661 108.254L128.617 105.58H127.119L129.905 109.206L126.979 113H128.477L130.647 110.158L132.789 113H134.315ZM140.683 104.152C141.215 104.152 141.593 103.76 141.593 103.256C141.593 102.78 141.201 102.402 140.683 102.402C140.165 102.402 139.773 102.794 139.773 103.284C139.773 103.774 140.165 104.152 140.683 104.152ZM138.989 115.8C140.515 115.8 141.355 114.848 141.355 113.336V105.58H140.011V113.364C140.011 114.218 139.619 114.666 138.905 114.666C138.471 114.666 138.079 114.54 137.813 114.316L137.379 115.352C137.757 115.66 138.373 115.8 138.989 115.8ZM149.692 105.58V109.416C149.692 111.012 148.796 111.88 147.396 111.88C146.122 111.88 145.394 111.152 145.394 109.696V105.58H144.05V109.85C144.05 112.034 145.324 113.084 147.242 113.084C148.292 113.084 149.216 112.65 149.762 111.88V113H151.036V105.58H149.692ZM163.076 105.51C161.816 105.51 160.78 106.042 160.22 106.882C159.73 105.958 158.778 105.51 157.644 105.51C156.524 105.51 155.614 105.93 155.082 106.686V105.58H153.794V113H155.138V109.178C155.138 107.568 156.02 106.714 157.364 106.714C158.582 106.714 159.282 107.428 159.282 108.884V113H160.626V109.178C160.626 107.568 161.508 106.714 162.852 106.714C164.07 106.714 164.77 107.428 164.77 108.884V113H166.114V108.73C166.114 106.546 164.882 105.51 163.076 105.51ZM172.721 105.51C171.629 105.51 170.677 105.93 170.075 106.756V105.58H168.787V115.716H170.131V111.88C170.747 112.678 171.671 113.084 172.721 113.084C174.891 113.084 176.473 111.572 176.473 109.29C176.473 107.022 174.891 105.51 172.721 105.51ZM172.609 111.908C171.195 111.908 170.117 110.872 170.117 109.29C170.117 107.722 171.195 106.686 172.609 106.686C174.037 106.686 175.115 107.722 175.115 109.29C175.115 110.872 174.037 111.908 172.609 111.908ZM180.658 113.084C182.632 113.084 183.864 112.23 183.864 110.886C183.864 108.002 179.16 109.43 179.16 107.68C179.16 107.092 179.734 106.658 180.91 106.658C181.638 106.658 182.38 106.812 183.052 107.246L183.626 106.182C182.982 105.762 181.89 105.51 180.924 105.51C179.02 105.51 177.83 106.406 177.83 107.736C177.83 110.69 182.52 109.248 182.52 110.914C182.52 111.544 182.002 111.922 180.756 111.922C179.79 111.922 178.782 111.6 178.152 111.152L177.592 112.216C178.208 112.706 179.426 113.084 180.658 113.084ZM192.882 113.084C195.108 113.084 196.732 111.502 196.732 109.29C196.732 107.078 195.108 105.51 192.882 105.51C190.656 105.51 189.018 107.078 189.018 109.29C189.018 111.502 190.656 113.084 192.882 113.084ZM192.882 111.908C191.454 111.908 190.376 110.872 190.376 109.29C190.376 107.708 191.454 106.686 192.882 106.686C194.31 106.686 195.374 107.708 195.374 109.29C195.374 110.872 194.31 111.908 192.882 111.908ZM203.835 105.58L201.231 111.53L198.683 105.58H197.283L200.531 113H201.903L205.151 105.58H203.835ZM213.107 109.332C213.107 107.05 211.581 105.51 209.439 105.51C207.297 105.51 205.715 107.092 205.715 109.29C205.715 111.502 207.311 113.084 209.705 113.084C210.937 113.084 211.959 112.664 212.631 111.88L211.889 111.012C211.343 111.614 210.615 111.908 209.747 111.908C208.277 111.908 207.227 111.04 207.059 109.738H213.079C213.093 109.612 213.107 109.444 213.107 109.332ZM209.439 106.644C210.741 106.644 211.679 107.526 211.819 108.772H207.059C207.199 107.512 208.151 106.644 209.439 106.644ZM216.461 106.826V105.58H215.173V113H216.517V109.304C216.517 107.68 217.413 106.798 218.855 106.798C218.953 106.798 219.051 106.798 219.163 106.812V105.51C217.861 105.51 216.937 105.958 216.461 106.826ZM228.827 111.6C228.547 111.824 228.169 111.95 227.777 111.95C227.035 111.95 226.615 111.502 226.615 110.704V106.686H228.743V105.58H226.615V103.956H225.271V105.58H224.011V106.686H225.271V110.76C225.271 112.258 226.125 113.084 227.623 113.084C228.225 113.084 228.841 112.916 229.247 112.566L228.827 111.6ZM235.034 105.51C233.9 105.51 232.976 105.916 232.416 106.63V102.612H231.072V113H232.416V109.178C232.416 107.568 233.34 106.714 234.768 106.714C236.042 106.714 236.77 107.428 236.77 108.884V113H238.114V108.73C238.114 106.546 236.84 105.51 235.034 105.51ZM247.548 109.332C247.548 107.05 246.022 105.51 243.88 105.51C241.738 105.51 240.156 107.092 240.156 109.29C240.156 111.502 241.752 113.084 244.146 113.084C245.378 113.084 246.4 112.664 247.072 111.88L246.33 111.012C245.784 111.614 245.056 111.908 244.188 111.908C242.718 111.908 241.668 111.04 241.5 109.738H247.52C247.534 109.612 247.548 109.444 247.548 109.332ZM243.88 106.644C245.182 106.644 246.12 107.526 246.26 108.772H241.5C241.64 107.512 242.592 106.644 243.88 106.644ZM253.574 113H254.918V102.612H253.574V113ZM260.386 105.51C259.196 105.51 258.09 105.846 257.32 106.462L257.88 107.47C258.454 106.98 259.35 106.672 260.232 106.672C261.562 106.672 262.22 107.33 262.22 108.464V108.73H260.092C257.88 108.73 257.11 109.71 257.11 110.9C257.11 112.188 258.174 113.084 259.854 113.084C261.016 113.084 261.842 112.692 262.29 112.02V113H263.564V108.52C263.564 106.49 262.416 105.51 260.386 105.51ZM260.078 112.048C259.056 112.048 258.44 111.586 258.44 110.844C258.44 110.214 258.818 109.696 260.148 109.696H262.22V110.732C261.884 111.586 261.086 112.048 260.078 112.048ZM267.259 111.894L271.641 106.462V105.58H265.621V106.686H269.919L265.537 112.132V113H271.753V111.894H267.259ZM278.865 105.58L276.303 111.516L273.713 105.58H272.313L275.589 112.986L275.351 113.504C274.987 114.358 274.581 114.652 273.937 114.652C273.433 114.652 272.971 114.456 272.607 114.106L272.033 115.114C272.495 115.562 273.223 115.8 273.937 115.8C275.071 115.8 275.925 115.31 276.583 113.742L280.181 105.58H278.865ZM46.93 122.612V126.7C46.314 125.902 45.39 125.51 44.34 125.51C42.17 125.51 40.588 127.022 40.588 129.29C40.588 131.558 42.17 133.084 44.34 133.084C45.432 133.084 46.384 132.664 46.986 131.824V133H48.274V122.612H46.93ZM44.452 131.908C43.024 131.908 41.946 130.872 41.946 129.29C41.946 127.708 43.024 126.686 44.452 126.686C45.866 126.686 46.944 127.708 46.944 129.29C46.944 130.872 45.866 131.908 44.452 131.908ZM54.195 133.084C56.421 133.084 58.045 131.502 58.045 129.29C58.045 127.078 56.421 125.51 54.195 125.51C51.969 125.51 50.331 127.078 50.331 129.29C50.331 131.502 51.969 133.084 54.195 133.084ZM54.195 131.908C52.767 131.908 51.689 130.872 51.689 129.29C51.689 127.708 52.767 126.686 54.195 126.686C55.623 126.686 56.687 127.708 56.687 129.29C56.687 130.872 55.623 131.908 54.195 131.908ZM65.9277 125.58V126.728C65.2977 125.916 64.2897 125.51 63.1837 125.51C61.0417 125.51 59.4177 126.952 59.4177 129.094C59.4177 131.236 61.0417 132.692 63.1837 132.692C64.2477 132.692 65.2137 132.314 65.8577 131.544V132.132C65.8577 133.812 65.0597 134.624 63.3097 134.624C62.2177 134.624 61.1397 134.246 60.4537 133.658L59.8097 134.694C60.6217 135.422 61.9937 135.8 63.3517 135.8C65.8717 135.8 67.2017 134.61 67.2017 131.992V125.58H65.9277ZM63.3377 131.516C61.8397 131.516 60.7757 130.522 60.7757 129.094C60.7757 127.652 61.8397 126.686 63.3377 126.686C64.8217 126.686 65.8857 127.652 65.8857 129.094C65.8857 130.522 64.8217 131.516 63.3377 131.516ZM77.6815 131.6C77.4015 131.824 77.0235 131.95 76.6315 131.95C75.8895 131.95 75.4695 131.502 75.4695 130.704V126.686H77.5975V125.58H75.4695V123.956H74.1255V125.58H72.8655V126.686H74.1255V130.76C74.1255 132.258 74.9795 133.084 76.4775 133.084C77.0795 133.084 77.6955 132.916 78.1015 132.566L77.6815 131.6ZM83.8883 125.51C82.7543 125.51 81.8303 125.916 81.2703 126.63V122.612H79.9263V133H81.2703V129.178C81.2703 127.568 82.1943 126.714 83.6223 126.714C84.8963 126.714 85.6243 127.428 85.6243 128.884V133H86.9683V128.73C86.9683 126.546 85.6943 125.51 83.8883 125.51ZM96.4027 129.332C96.4027 127.05 94.8767 125.51 92.7347 125.51C90.5927 125.51 89.0107 127.092 89.0107 129.29C89.0107 131.502 90.6067 133.084 93.0007 133.084C94.2327 133.084 95.2547 132.664 95.9267 131.88L95.1847 131.012C94.6387 131.614 93.9107 131.908 93.0427 131.908C91.5727 131.908 90.5227 131.04 90.3547 129.738H96.3747C96.3887 129.612 96.4027 129.444 96.4027 129.332ZM92.7347 126.644C94.0367 126.644 94.9747 127.526 95.1147 128.772H90.3547C90.4947 127.512 91.4467 126.644 92.7347 126.644ZM108.141 125.58V126.756C107.539 125.93 106.587 125.51 105.495 125.51C103.325 125.51 101.743 127.022 101.743 129.29C101.743 131.572 103.325 133.084 105.495 133.084C106.545 133.084 107.469 132.678 108.085 131.88V135.716H109.429V125.58H108.141ZM105.607 131.908C104.179 131.908 103.101 130.872 103.101 129.29C103.101 127.722 104.179 126.686 105.607 126.686C107.021 126.686 108.099 127.722 108.099 129.29C108.099 130.872 107.021 131.908 105.607 131.908ZM117.744 125.58V129.416C117.744 131.012 116.848 131.88 115.448 131.88C114.174 131.88 113.446 131.152 113.446 129.696V125.58H112.102V129.85C112.102 132.034 113.376 133.084 115.294 133.084C116.344 133.084 117.268 132.65 117.814 131.88V133H119.088V125.58H117.744ZM122.518 124.152C123.05 124.152 123.428 123.76 123.428 123.256C123.428 122.78 123.036 122.402 122.518 122.402C122 122.402 121.608 122.794 121.608 123.284C121.608 123.774 122 124.152 122.518 124.152ZM121.846 133H123.19V125.58H121.846V133ZM129.19 133.084C130.52 133.084 131.626 132.524 132.214 131.488L131.192 130.844C130.716 131.572 129.988 131.908 129.176 131.908C127.72 131.908 126.628 130.9 126.628 129.29C126.628 127.708 127.72 126.686 129.176 126.686C129.988 126.686 130.716 127.022 131.192 127.75L132.214 127.092C131.626 126.056 130.52 125.51 129.19 125.51C126.908 125.51 125.27 127.078 125.27 129.29C125.27 131.502 126.908 133.084 129.19 133.084ZM139.729 133H141.381L137.951 128.646L141.073 125.58H139.449L135.403 129.276V122.612H134.059V133H135.403V130.97L136.943 129.542L139.729 133ZM149.561 123.634C149.953 123.634 150.317 123.774 150.597 123.984L151.003 122.962C150.625 122.668 150.065 122.528 149.491 122.528C147.909 122.528 147.041 123.48 147.041 124.922V125.58H145.781V126.686H147.041V133H148.385V126.686H150.513V125.58H148.357V124.936C148.357 124.082 148.763 123.634 149.561 123.634ZM155.05 133.084C157.276 133.084 158.9 131.502 158.9 129.29C158.9 127.078 157.276 125.51 155.05 125.51C152.824 125.51 151.186 127.078 151.186 129.29C151.186 131.502 152.824 133.084 155.05 133.084ZM155.05 131.908C153.622 131.908 152.544 130.872 152.544 129.29C152.544 127.708 153.622 126.686 155.05 126.686C156.478 126.686 157.542 127.708 157.542 129.29C157.542 130.872 156.478 131.908 155.05 131.908ZM166.97 133L164.016 129.206L166.816 125.58H165.346L163.316 128.254L161.272 125.58H159.774L162.56 129.206L159.634 133H161.132L163.302 130.158L165.444 133H166.97ZM173.339 124.152C173.871 124.152 174.249 123.76 174.249 123.256C174.249 122.78 173.857 122.402 173.339 122.402C172.821 122.402 172.429 122.794 172.429 123.284C172.429 123.774 172.821 124.152 173.339 124.152ZM171.645 135.8C173.171 135.8 174.011 134.848 174.011 133.336V125.58H172.667V133.364C172.667 134.218 172.275 134.666 171.561 134.666C171.127 134.666 170.735 134.54 170.469 134.316L170.035 135.352C170.413 135.66 171.029 135.8 171.645 135.8ZM182.347 125.58V129.416C182.347 131.012 181.451 131.88 180.051 131.88C178.777 131.88 178.049 131.152 178.049 129.696V125.58H176.705V129.85C176.705 132.034 177.979 133.084 179.897 133.084C180.947 133.084 181.871 132.65 182.417 131.88V133H183.691V125.58H182.347ZM195.732 125.51C194.472 125.51 193.436 126.042 192.876 126.882C192.386 125.958 191.434 125.51 190.3 125.51C189.18 125.51 188.27 125.93 187.738 126.686V125.58H186.45V133H187.794V129.178C187.794 127.568 188.676 126.714 190.02 126.714C191.238 126.714 191.938 127.428 191.938 128.884V133H193.282V129.178C193.282 127.568 194.164 126.714 195.508 126.714C196.726 126.714 197.426 127.428 197.426 128.884V133H198.77V128.73C198.77 126.546 197.538 125.51 195.732 125.51ZM205.377 125.51C204.285 125.51 203.333 125.93 202.731 126.756V125.58H201.443V135.716H202.787V131.88C203.403 132.678 204.327 133.084 205.377 133.084C207.547 133.084 209.129 131.572 209.129 129.29C209.129 127.022 207.547 125.51 205.377 125.51ZM205.265 131.908C203.851 131.908 202.773 130.872 202.773 129.29C202.773 127.722 203.851 126.686 205.265 126.686C206.693 126.686 207.771 127.722 207.771 129.29C207.771 130.872 206.693 131.908 205.265 131.908ZM213.314 133.084C215.288 133.084 216.52 132.23 216.52 130.886C216.52 128.002 211.816 129.43 211.816 127.68C211.816 127.092 212.39 126.658 213.566 126.658C214.294 126.658 215.036 126.812 215.708 127.246L216.282 126.182C215.638 125.762 214.546 125.51 213.58 125.51C211.676 125.51 210.486 126.406 210.486 127.736C210.486 130.69 215.176 129.248 215.176 130.914C215.176 131.544 214.658 131.922 213.412 131.922C212.446 131.922 211.438 131.6 210.808 131.152L210.248 132.216C210.864 132.706 212.082 133.084 213.314 133.084ZM225.537 133.084C227.763 133.084 229.387 131.502 229.387 129.29C229.387 127.078 227.763 125.51 225.537 125.51C223.311 125.51 221.673 127.078 221.673 129.29C221.673 131.502 223.311 133.084 225.537 133.084ZM225.537 131.908C224.109 131.908 223.031 130.872 223.031 129.29C223.031 127.708 224.109 126.686 225.537 126.686C226.965 126.686 228.029 127.708 228.029 129.29C228.029 130.872 226.965 131.908 225.537 131.908ZM236.491 125.58L233.887 131.53L231.339 125.58H229.939L233.187 133H234.559L237.807 125.58H236.491ZM245.762 129.332C245.762 127.05 244.236 125.51 242.094 125.51C239.952 125.51 238.37 127.092 238.37 129.29C238.37 131.502 239.966 133.084 242.36 133.084C243.592 133.084 244.614 132.664 245.286 131.88L244.544 131.012C243.998 131.614 243.27 131.908 242.402 131.908C240.932 131.908 239.882 131.04 239.714 129.738H245.734C245.748 129.612 245.762 129.444 245.762 129.332ZM242.094 126.644C243.396 126.644 244.334 127.526 244.474 128.772H239.714C239.854 127.512 240.806 126.644 242.094 126.644ZM249.116 126.826V125.58H247.828V133H249.172V129.304C249.172 127.68 250.068 126.798 251.51 126.798C251.608 126.798 251.706 126.798 251.818 126.812V125.51C250.516 125.51 249.592 125.958 249.116 126.826ZM261.482 131.6C261.202 131.824 260.824 131.95 260.432 131.95C259.69 131.95 259.27 131.502 259.27 130.704V126.686H261.398V125.58H259.27V123.956H257.926V125.58H256.666V126.686H257.926V130.76C257.926 132.258 258.78 133.084 260.278 133.084C260.88 133.084 261.496 132.916 261.902 132.566L261.482 131.6ZM267.689 125.51C266.555 125.51 265.631 125.916 265.071 126.63V122.612H263.727V133H265.071V129.178C265.071 127.568 265.995 126.714 267.423 126.714C268.697 126.714 269.425 127.428 269.425 128.884V133H270.769V128.73C270.769 126.546 269.495 125.51 267.689 125.51ZM280.203 129.332C280.203 127.05 278.677 125.51 276.535 125.51C274.393 125.51 272.811 127.092 272.811 129.29C272.811 131.502 274.407 133.084 276.801 133.084C278.033 133.084 279.055 132.664 279.727 131.88L278.985 131.012C278.439 131.614 277.711 131.908 276.843 131.908C275.373 131.908 274.323 131.04 274.155 129.738H280.175C280.189 129.612 280.203 129.444 280.203 129.332ZM276.535 126.644C277.837 126.644 278.775 127.526 278.915 128.772H274.155C274.295 127.512 275.247 126.644 276.535 126.644ZM41.274 153H42.618V142.612H41.274V153ZM48.0862 145.51C46.8962 145.51 45.7902 145.846 45.0202 146.462L45.5802 147.47C46.1542 146.98 47.0502 146.672 47.9322 146.672C49.2622 146.672 49.9202 147.33 49.9202 148.464V148.73H47.7922C45.5802 148.73 44.8102 149.71 44.8102 150.9C44.8102 152.188 45.8742 153.084 47.5542 153.084C48.7162 153.084 49.5422 152.692 49.9902 152.02V153H51.2642V148.52C51.2642 146.49 50.1162 145.51 48.0862 145.51ZM47.7782 152.048C46.7562 152.048 46.1402 151.586 46.1402 150.844C46.1402 150.214 46.5182 149.696 47.8482 149.696H49.9202V150.732C49.5842 151.586 48.7862 152.048 47.7782 152.048ZM54.9593 151.894L59.3413 146.462V145.58H53.3213V146.686H57.6193L53.2373 152.132V153H59.4533V151.894H54.9593ZM66.5654 145.58L64.0034 151.516L61.4134 145.58H60.0134L63.2894 152.986L63.0514 153.504C62.6874 154.358 62.2814 154.652 61.6374 154.652C61.1334 154.652 60.6714 154.456 60.3074 154.106L59.7334 155.114C60.1954 155.562 60.9234 155.8 61.6374 155.8C62.7714 155.8 63.6254 155.31 64.2834 153.742L67.8814 145.58H66.5654ZM78.9515 142.612V146.7C78.3355 145.902 77.4115 145.51 76.3615 145.51C74.1915 145.51 72.6095 147.022 72.6095 149.29C72.6095 151.558 74.1915 153.084 76.3615 153.084C77.4535 153.084 78.4055 152.664 79.0075 151.824V153H80.2955V142.612H78.9515ZM76.4735 151.908C75.0455 151.908 73.9675 150.872 73.9675 149.29C73.9675 147.708 75.0455 146.686 76.4735 146.686C77.8875 146.686 78.9655 147.708 78.9655 149.29C78.9655 150.872 77.8875 151.908 76.4735 151.908ZM86.2165 153.084C88.4425 153.084 90.0665 151.502 90.0665 149.29C90.0665 147.078 88.4425 145.51 86.2165 145.51C83.9905 145.51 82.3525 147.078 82.3525 149.29C82.3525 151.502 83.9905 153.084 86.2165 153.084ZM86.2165 151.908C84.7885 151.908 83.7105 150.872 83.7105 149.29C83.7105 147.708 84.7885 146.686 86.2165 146.686C87.6445 146.686 88.7085 147.708 88.7085 149.29C88.7085 150.872 87.6445 151.908 86.2165 151.908ZM97.9492 145.58V146.728C97.3192 145.916 96.3112 145.51 95.2052 145.51C93.0632 145.51 91.4392 146.952 91.4392 149.094C91.4392 151.236 93.0632 152.692 95.2052 152.692C96.2692 152.692 97.2352 152.314 97.8792 151.544V152.132C97.8792 153.812 97.0812 154.624 95.3312 154.624C94.2392 154.624 93.1612 154.246 92.4752 153.658L91.8312 154.694C92.6432 155.422 94.0152 155.8 95.3732 155.8C97.8932 155.8 99.2232 154.61 99.2232 151.992V145.58H97.9492ZM95.3592 151.516C93.8612 151.516 92.7972 150.522 92.7972 149.094C92.7972 147.652 93.8612 146.686 95.3592 146.686C96.8432 146.686 97.9072 147.652 97.9072 149.094C97.9072 150.522 96.8432 151.516 95.3592 151.516Z" fill="#737373"/>
<rect x="0.5" y="0.5" width="327" height="192" stroke="#E8E8E8"/>
<defs>
<clipPath id="clip0_993_637">
<rect width="237" height="48" fill="white" transform="translate(40 35)"/>
</clipPath>
</defs>
</svg>
