<svg width="329" height="193" viewBox="0 0 329 193" fill="none" xmlns="http://www.w3.org/2000/svg">
<rect x="0.5" y="0.5" width="327" height="192" fill="white"/>
<g clip-path="url(#clip0_993_599)">
<g clip-path="url(#clip1_993_599)">
<g clip-path="url(#clip2_993_599)">
<path opacity="0.15" d="M83.6503 48.75H44.3503C44.3323 48.75 44.3203 48.7619 44.3203 48.7796V54.1849C44.3203 57.7291 47.2603 60.6037 50.8783 60.6037C53.3203 60.6037 55.4503 59.2998 56.5843 57.3617C56.7583 57.0594 57.0883 56.8698 57.4423 56.8698C57.7963 56.8698 58.1203 57.0594 58.3003 57.3617C59.4283 59.2998 61.5583 60.6037 64.0003 60.6037C66.4483 60.6037 68.5843 59.2938 69.7063 57.3498C69.8803 57.0535 70.1983 56.8698 70.5403 56.8698H70.5763C70.9243 56.8698 71.2363 57.0535 71.4103 57.3498C72.5383 59.2938 74.6743 60.6037 77.1223 60.6037C80.7403 60.6037 83.6803 57.7291 83.6803 54.1849V48.7796C83.6803 48.7619 83.6683 48.75 83.6503 48.75Z" fill="#00A0C1"/>
<path d="M86.2 44.4889V36.8966C86.2 35.8475 85.342 35 84.28 35H43.72C42.658 35 41.8 35.8475 41.8 36.8966V44.4889C40.798 44.5481 40 45.372 40 46.3795V54.1851C39.9962 55.6197 40.2903 57.0398 40.864 58.3576C41.122 58.9622 41.44 59.5311 41.8 60.0705V80.518C41.8 81.5612 42.658 82.4146 43.72 82.4146H84.28C85.342 82.4146 86.2 81.5671 86.2 80.518V60.0705C86.5657 59.5298 86.879 58.9563 87.136 58.3576C87.706 57.036 88 55.6313 88 54.1851V46.3795C88 45.372 87.202 44.5481 86.2 44.4889ZM46.12 39.2673H81.88V44.4829H46.12V39.2673ZM67.84 78.1532H60.16V71.9834H67.84V78.1532ZM81.904 78.1532H71.68V70.0868C71.68 69.0378 70.822 68.1902 69.76 68.1902H58.24C57.178 68.1902 56.32 69.0378 56.32 70.0868V78.1532H46.12V63.7985C46.294 63.8814 46.474 63.9644 46.66 64.0355C47.998 64.5927 49.42 64.8712 50.884 64.8712C52.348 64.8712 53.764 64.5927 55.108 64.0355C55.936 63.6918 56.716 63.2532 57.43 62.7257C57.442 62.7198 57.454 62.7198 57.466 62.7257C58.1822 63.2554 58.9622 63.6954 59.788 64.0355C61.126 64.5927 62.548 64.8712 64.012 64.8712C65.476 64.8712 66.892 64.5927 68.236 64.0355C69.064 63.6918 69.844 63.2532 70.558 62.7257C70.57 62.7198 70.582 62.7198 70.594 62.7257C71.3102 63.2554 72.0902 63.6954 72.916 64.0355C74.254 64.5927 75.676 64.8712 77.14 64.8712C78.604 64.8712 80.02 64.5927 81.364 64.0355C81.544 63.9585 81.724 63.8814 81.904 63.7985V78.1532ZM83.68 54.1851C83.68 57.7294 80.74 60.6039 77.122 60.6039C74.674 60.6039 72.538 59.2941 71.41 57.3501C71.236 57.0537 70.924 56.87 70.576 56.87H70.54C70.198 56.87 69.88 57.0537 69.706 57.3501C69.1304 58.3417 68.2992 59.1652 67.297 59.7367C66.2948 60.3082 65.1572 60.6074 64 60.6039C61.558 60.6039 59.428 59.3 58.3 57.3619C58.12 57.0597 57.796 56.87 57.442 56.87C57.088 56.87 56.758 57.0597 56.584 57.3619C56.005 58.3498 55.1728 59.1695 54.1711 59.7387C53.1694 60.3078 52.0336 60.6062 50.878 60.6039C47.26 60.6039 44.32 57.7294 44.32 54.1851V48.7799C44.32 48.7621 44.332 48.7502 44.35 48.7502H83.65C83.668 48.7502 83.68 48.7621 83.68 48.7799V54.1851Z" fill="#00A0C1"/>
</g>
</g>
<path d="M108.328 53.816C110.323 53.816 111.853 54.3067 112.92 55.288C113.987 56.2587 114.52 57.6133 114.52 59.352C114.52 61.0907 113.997 62.4667 112.952 63.48C111.917 64.4933 110.333 65 108.2 65H104.376V53.816H108.328ZM108.456 62.792C109.597 62.792 110.472 62.504 111.08 61.928C111.699 61.352 112.008 60.5147 112.008 59.416C112.008 58.3173 111.699 57.4747 111.08 56.888C110.472 56.2907 109.533 55.992 108.264 55.992H106.872V62.792H108.456ZM118.839 65H116.439V56.392H118.839V65ZM116.631 55.304C116.364 55.0267 116.231 54.6907 116.231 54.296C116.231 53.9013 116.364 53.5707 116.631 53.304C116.908 53.0267 117.244 52.888 117.639 52.888C118.034 52.888 118.364 53.0267 118.631 53.304C118.908 53.5707 119.047 53.9013 119.047 54.296C119.047 54.6907 118.908 55.0267 118.631 55.304C118.364 55.5707 118.034 55.704 117.639 55.704C117.244 55.704 116.908 55.5707 116.631 55.304ZM127.243 60.52C127.243 59.8267 127.051 59.2827 126.667 58.888C126.283 58.4933 125.808 58.296 125.243 58.296C124.678 58.296 124.187 58.4933 123.771 58.888C123.366 59.2827 123.163 59.8213 123.163 60.504C123.163 61.1867 123.36 61.7413 123.755 62.168C124.16 62.584 124.651 62.792 125.227 62.792C125.803 62.792 126.283 62.584 126.667 62.168C127.051 61.752 127.243 61.2027 127.243 60.52ZM127.579 63.544C126.822 64.3867 125.878 64.808 124.747 64.808C123.627 64.808 122.678 64.4293 121.899 63.672C121.131 62.904 120.747 61.8853 120.747 60.616C120.747 59.336 121.142 58.2907 121.931 57.48C122.731 56.6587 123.643 56.248 124.667 56.248C125.691 56.248 126.539 56.6693 127.211 57.512V56.376H129.611V63.88C129.611 64.648 129.478 65.3307 129.211 65.928C128.944 66.5253 128.587 66.9947 128.139 67.336C127.254 68.04 126.208 68.392 125.003 68.392C124.363 68.392 123.707 68.2853 123.035 68.072C122.374 67.8693 121.792 67.576 121.291 67.192L122.219 65.384C123.008 65.9813 123.84 66.28 124.715 66.28C125.6 66.28 126.299 66.0613 126.811 65.624C127.323 65.1867 127.579 64.4933 127.579 63.544ZM134.383 65H131.983V56.392H134.383V65ZM132.175 55.304C131.908 55.0267 131.775 54.6907 131.775 54.296C131.775 53.9013 131.908 53.5707 132.175 53.304C132.452 53.0267 132.788 52.888 133.183 52.888C133.578 52.888 133.908 53.0267 134.175 53.304C134.452 53.5707 134.591 53.9013 134.591 54.296C134.591 54.6907 134.452 55.0267 134.175 55.304C133.908 55.5707 133.578 55.704 133.183 55.704C132.788 55.704 132.452 55.5707 132.175 55.304ZM139.619 58.12V61.976C139.619 62.3067 139.704 62.568 139.875 62.76C140.045 62.9413 140.248 63.032 140.483 63.032C140.931 63.032 141.309 62.8293 141.619 62.424L142.515 64.104C141.768 64.7867 140.979 65.128 140.147 65.128C139.325 65.128 138.627 64.856 138.051 64.312C137.485 63.768 137.203 63.0267 137.203 62.088V58.12H136.195V56.392H137.203V53.816H139.619V56.392H141.699V58.12H139.619ZM151.214 65H148.958V63.96C148.339 64.7387 147.571 65.128 146.654 65.128C145.747 65.128 144.984 64.8667 144.366 64.344C143.747 63.8107 143.438 63.1067 143.438 62.232C143.438 61.3467 143.758 60.6853 144.398 60.248C145.038 59.8107 145.912 59.592 147.022 59.592H148.814V59.544C148.814 58.6267 148.328 58.168 147.358 58.168C146.942 58.168 146.499 58.2533 146.03 58.424C145.571 58.584 145.182 58.7867 144.862 59.032L143.79 57.48C144.92 56.6587 146.211 56.248 147.662 56.248C148.707 56.248 149.56 56.5093 150.222 57.032C150.883 57.5547 151.214 58.3813 151.214 59.512V65ZM148.798 61.72V61.304H147.294C146.334 61.304 145.854 61.6027 145.854 62.2C145.854 62.5093 145.966 62.7493 146.19 62.92C146.424 63.08 146.755 63.16 147.182 63.16C147.608 63.16 147.982 63.032 148.302 62.776C148.632 62.5093 148.798 62.1573 148.798 61.72ZM155.902 65H153.502V53.128H155.902V65ZM172.848 57.96L169.824 64.072H168.336L165.328 57.96V65H162.832V53.816H166.208L169.088 59.96L171.984 53.816H175.344V65H172.848V57.96ZM185.27 65H183.014V63.96C182.395 64.7387 181.627 65.128 180.71 65.128C179.803 65.128 179.041 64.8667 178.422 64.344C177.803 63.8107 177.494 63.1067 177.494 62.232C177.494 61.3467 177.814 60.6853 178.454 60.248C179.094 59.8107 179.969 59.592 181.078 59.592H182.87V59.544C182.87 58.6267 182.385 58.168 181.414 58.168C180.998 58.168 180.555 58.2533 180.086 58.424C179.627 58.584 179.238 58.7867 178.918 59.032L177.846 57.48C178.977 56.6587 180.267 56.248 181.718 56.248C182.763 56.248 183.617 56.5093 184.278 57.032C184.939 57.5547 185.27 58.3813 185.27 59.512V65ZM182.854 61.72V61.304H181.35C180.39 61.304 179.91 61.6027 179.91 62.2C179.91 62.5093 180.022 62.7493 180.246 62.92C180.481 63.08 180.811 63.16 181.238 63.16C181.665 63.16 182.038 63.032 182.358 62.776C182.689 62.5093 182.854 62.1573 182.854 61.72ZM192.086 58.504C191.371 58.504 190.838 58.76 190.486 59.272C190.134 59.7733 189.958 60.44 189.958 61.272V65H187.558V56.392H189.958V57.528C190.267 57.176 190.651 56.8773 191.11 56.632C191.579 56.3867 192.054 56.2587 192.534 56.248L192.55 58.504H192.086ZM196.636 65H194.236V53.128H196.636V59.224L199.308 56.376H202.332L199.052 59.864L202.46 65H199.612L197.42 61.704L196.636 62.52V65ZM211.308 63.752C210.337 64.6693 209.196 65.128 207.884 65.128C206.582 65.128 205.505 64.728 204.652 63.928C203.798 63.1173 203.372 62.0347 203.372 60.68C203.372 59.3253 203.804 58.248 204.668 57.448C205.542 56.648 206.572 56.248 207.756 56.248C208.94 56.248 209.942 56.6053 210.764 57.32C211.596 58.0347 212.012 59.016 212.012 60.264V61.544H205.74C205.814 62.0133 206.06 62.3973 206.476 62.696C206.892 62.9947 207.361 63.144 207.884 63.144C208.726 63.144 209.42 62.8613 209.964 62.296L211.308 63.752ZM209.58 59.832C209.526 59.32 209.334 58.9253 209.004 58.648C208.673 58.3707 208.268 58.232 207.788 58.232C207.318 58.232 206.886 58.376 206.492 58.664C206.097 58.952 205.868 59.3413 205.804 59.832H209.58ZM216.613 58.12V61.976C216.613 62.3067 216.698 62.568 216.869 62.76C217.039 62.9413 217.242 63.032 217.477 63.032C217.925 63.032 218.303 62.8293 218.613 62.424L219.509 64.104C218.762 64.7867 217.973 65.128 217.141 65.128C216.319 65.128 215.621 64.856 215.045 64.312C214.479 63.768 214.197 63.0267 214.197 62.088V58.12H213.189V56.392H214.197V53.816H216.613V56.392H218.693V58.12H216.613ZM223.295 65H220.895V56.392H223.295V65ZM221.087 55.304C220.821 55.0267 220.687 54.6907 220.687 54.296C220.687 53.9013 220.821 53.5707 221.087 53.304C221.365 53.0267 221.701 52.888 222.095 52.888C222.49 52.888 222.821 53.0267 223.087 53.304C223.365 53.5707 223.503 53.9013 223.503 54.296C223.503 54.6907 223.365 55.0267 223.087 55.304C222.821 55.5707 222.49 55.704 222.095 55.704C221.701 55.704 221.365 55.5707 221.087 55.304ZM228.067 60.2V65H225.667V56.392H228.067V57.352C228.793 56.616 229.609 56.248 230.515 56.248C231.422 56.248 232.179 56.568 232.787 57.208C233.406 57.848 233.715 58.7013 233.715 59.768V65H231.315V60.136C231.315 58.8133 230.83 58.152 229.859 58.152C229.379 58.152 228.958 58.328 228.595 58.68C228.243 59.0213 228.067 59.528 228.067 60.2ZM242.018 60.52C242.018 59.8267 241.826 59.2827 241.442 58.888C241.058 58.4933 240.583 58.296 240.018 58.296C239.453 58.296 238.962 58.4933 238.546 58.888C238.141 59.2827 237.938 59.8213 237.938 60.504C237.938 61.1867 238.135 61.7413 238.53 62.168C238.935 62.584 239.426 62.792 240.002 62.792C240.578 62.792 241.058 62.584 241.442 62.168C241.826 61.752 242.018 61.2027 242.018 60.52ZM242.354 63.544C241.597 64.3867 240.653 64.808 239.522 64.808C238.402 64.808 237.453 64.4293 236.674 63.672C235.906 62.904 235.522 61.8853 235.522 60.616C235.522 59.336 235.917 58.2907 236.706 57.48C237.506 56.6587 238.418 56.248 239.442 56.248C240.466 56.248 241.314 56.6693 241.986 57.512V56.376H244.386V63.88C244.386 64.648 244.253 65.3307 243.986 65.928C243.719 66.5253 243.362 66.9947 242.914 67.336C242.029 68.04 240.983 68.392 239.778 68.392C239.138 68.392 238.482 68.2853 237.81 68.072C237.149 67.8693 236.567 67.576 236.066 67.192L236.994 65.384C237.783 65.9813 238.615 66.28 239.49 66.28C240.375 66.28 241.074 66.0613 241.586 65.624C242.098 65.1867 242.354 64.4933 242.354 63.544Z" fill="#252B42"/>
</g>
<path d="M45.026 111.6C44.746 111.824 44.368 111.95 43.976 111.95C43.234 111.95 42.814 111.502 42.814 110.704V106.686H44.942V105.58H42.814V103.956H41.47V105.58H40.21V106.686H41.47V110.76C41.47 112.258 42.324 113.084 43.822 113.084C44.424 113.084 45.04 112.916 45.446 112.566L45.026 111.6ZM51.2329 105.51C50.0989 105.51 49.1749 105.916 48.6149 106.63V102.612H47.2709V113H48.6149V109.178C48.6149 107.568 49.5389 106.714 50.9669 106.714C52.2409 106.714 52.9689 107.428 52.9689 108.884V113H54.3129V108.73C54.3129 106.546 53.0389 105.51 51.2329 105.51ZM63.7472 109.332C63.7472 107.05 62.2212 105.51 60.0792 105.51C57.9372 105.51 56.3552 107.092 56.3552 109.29C56.3552 111.502 57.9512 113.084 60.3452 113.084C61.5772 113.084 62.5992 112.664 63.2712 111.88L62.5292 111.012C61.9832 111.614 61.2552 111.908 60.3872 111.908C58.9172 111.908 57.8672 111.04 57.6992 109.738H63.7192C63.7332 109.612 63.7472 109.444 63.7472 109.332ZM60.0792 106.644C61.3812 106.644 62.3192 107.526 62.4592 108.772H57.6992C57.8392 107.512 58.7912 106.644 60.0792 106.644ZM75.4852 105.58V106.756C74.8832 105.93 73.9312 105.51 72.8392 105.51C70.6692 105.51 69.0872 107.022 69.0872 109.29C69.0872 111.572 70.6692 113.084 72.8392 113.084C73.8892 113.084 74.8132 112.678 75.4292 111.88V115.716H76.7732V105.58H75.4852ZM72.9512 111.908C71.5232 111.908 70.4452 110.872 70.4452 109.29C70.4452 107.722 71.5232 106.686 72.9512 106.686C74.3652 106.686 75.4432 107.722 75.4432 109.29C75.4432 110.872 74.3652 111.908 72.9512 111.908ZM85.0882 105.58V109.416C85.0882 111.012 84.1922 111.88 82.7922 111.88C81.5182 111.88 80.7902 111.152 80.7902 109.696V105.58H79.4462V109.85C79.4462 112.034 80.7202 113.084 82.6382 113.084C83.6882 113.084 84.6122 112.65 85.1582 111.88V113H86.4322V105.58H85.0882ZM89.8628 104.152C90.3948 104.152 90.7728 103.76 90.7728 103.256C90.7728 102.78 90.3808 102.402 89.8628 102.402C89.3448 102.402 88.9528 102.794 88.9528 103.284C88.9528 103.774 89.3448 104.152 89.8628 104.152ZM89.1908 113H90.5348V105.58H89.1908V113ZM96.535 113.084C97.865 113.084 98.971 112.524 99.559 111.488L98.537 110.844C98.061 111.572 97.333 111.908 96.521 111.908C95.065 111.908 93.973 110.9 93.973 109.29C93.973 107.708 95.065 106.686 96.521 106.686C97.333 106.686 98.061 107.022 98.537 107.75L99.559 107.092C98.971 106.056 97.865 105.51 96.535 105.51C94.253 105.51 92.615 107.078 92.615 109.29C92.615 111.502 94.253 113.084 96.535 113.084ZM107.073 113H108.725L105.295 108.646L108.417 105.58H106.793L102.747 109.276V102.612H101.403V113H102.747V110.97L104.287 109.542L107.073 113ZM116.906 103.634C117.298 103.634 117.662 103.774 117.942 103.984L118.348 102.962C117.97 102.668 117.41 102.528 116.836 102.528C115.254 102.528 114.386 103.48 114.386 104.922V105.58H113.126V106.686H114.386V113H115.73V106.686H117.858V105.58H115.702V104.936C115.702 104.082 116.108 103.634 116.906 103.634ZM122.394 113.084C124.62 113.084 126.244 111.502 126.244 109.29C126.244 107.078 124.62 105.51 122.394 105.51C120.168 105.51 118.53 107.078 118.53 109.29C118.53 111.502 120.168 113.084 122.394 113.084ZM122.394 111.908C120.966 111.908 119.888 110.872 119.888 109.29C119.888 107.708 120.966 106.686 122.394 106.686C123.822 106.686 124.886 107.708 124.886 109.29C124.886 110.872 123.822 111.908 122.394 111.908ZM134.315 113L131.361 109.206L134.161 105.58H132.691L130.661 108.254L128.617 105.58H127.119L129.905 109.206L126.979 113H128.477L130.647 110.158L132.789 113H134.315ZM140.683 104.152C141.215 104.152 141.593 103.76 141.593 103.256C141.593 102.78 141.201 102.402 140.683 102.402C140.165 102.402 139.773 102.794 139.773 103.284C139.773 103.774 140.165 104.152 140.683 104.152ZM138.989 115.8C140.515 115.8 141.355 114.848 141.355 113.336V105.58H140.011V113.364C140.011 114.218 139.619 114.666 138.905 114.666C138.471 114.666 138.079 114.54 137.813 114.316L137.379 115.352C137.757 115.66 138.373 115.8 138.989 115.8ZM149.692 105.58V109.416C149.692 111.012 148.796 111.88 147.396 111.88C146.122 111.88 145.394 111.152 145.394 109.696V105.58H144.05V109.85C144.05 112.034 145.324 113.084 147.242 113.084C148.292 113.084 149.216 112.65 149.762 111.88V113H151.036V105.58H149.692ZM163.076 105.51C161.816 105.51 160.78 106.042 160.22 106.882C159.73 105.958 158.778 105.51 157.644 105.51C156.524 105.51 155.614 105.93 155.082 106.686V105.58H153.794V113H155.138V109.178C155.138 107.568 156.02 106.714 157.364 106.714C158.582 106.714 159.282 107.428 159.282 108.884V113H160.626V109.178C160.626 107.568 161.508 106.714 162.852 106.714C164.07 106.714 164.77 107.428 164.77 108.884V113H166.114V108.73C166.114 106.546 164.882 105.51 163.076 105.51ZM172.721 105.51C171.629 105.51 170.677 105.93 170.075 106.756V105.58H168.787V115.716H170.131V111.88C170.747 112.678 171.671 113.084 172.721 113.084C174.891 113.084 176.473 111.572 176.473 109.29C176.473 107.022 174.891 105.51 172.721 105.51ZM172.609 111.908C171.195 111.908 170.117 110.872 170.117 109.29C170.117 107.722 171.195 106.686 172.609 106.686C174.037 106.686 175.115 107.722 175.115 109.29C175.115 110.872 174.037 111.908 172.609 111.908ZM180.658 113.084C182.632 113.084 183.864 112.23 183.864 110.886C183.864 108.002 179.16 109.43 179.16 107.68C179.16 107.092 179.734 106.658 180.91 106.658C181.638 106.658 182.38 106.812 183.052 107.246L183.626 106.182C182.982 105.762 181.89 105.51 180.924 105.51C179.02 105.51 177.83 106.406 177.83 107.736C177.83 110.69 182.52 109.248 182.52 110.914C182.52 111.544 182.002 111.922 180.756 111.922C179.79 111.922 178.782 111.6 178.152 111.152L177.592 112.216C178.208 112.706 179.426 113.084 180.658 113.084ZM192.882 113.084C195.108 113.084 196.732 111.502 196.732 109.29C196.732 107.078 195.108 105.51 192.882 105.51C190.656 105.51 189.018 107.078 189.018 109.29C189.018 111.502 190.656 113.084 192.882 113.084ZM192.882 111.908C191.454 111.908 190.376 110.872 190.376 109.29C190.376 107.708 191.454 106.686 192.882 106.686C194.31 106.686 195.374 107.708 195.374 109.29C195.374 110.872 194.31 111.908 192.882 111.908ZM203.835 105.58L201.231 111.53L198.683 105.58H197.283L200.531 113H201.903L205.151 105.58H203.835ZM213.107 109.332C213.107 107.05 211.581 105.51 209.439 105.51C207.297 105.51 205.715 107.092 205.715 109.29C205.715 111.502 207.311 113.084 209.705 113.084C210.937 113.084 211.959 112.664 212.631 111.88L211.889 111.012C211.343 111.614 210.615 111.908 209.747 111.908C208.277 111.908 207.227 111.04 207.059 109.738H213.079C213.093 109.612 213.107 109.444 213.107 109.332ZM209.439 106.644C210.741 106.644 211.679 107.526 211.819 108.772H207.059C207.199 107.512 208.151 106.644 209.439 106.644ZM216.461 106.826V105.58H215.173V113H216.517V109.304C216.517 107.68 217.413 106.798 218.855 106.798C218.953 106.798 219.051 106.798 219.163 106.812V105.51C217.861 105.51 216.937 105.958 216.461 106.826ZM228.827 111.6C228.547 111.824 228.169 111.95 227.777 111.95C227.035 111.95 226.615 111.502 226.615 110.704V106.686H228.743V105.58H226.615V103.956H225.271V105.58H224.011V106.686H225.271V110.76C225.271 112.258 226.125 113.084 227.623 113.084C228.225 113.084 228.841 112.916 229.247 112.566L228.827 111.6ZM235.034 105.51C233.9 105.51 232.976 105.916 232.416 106.63V102.612H231.072V113H232.416V109.178C232.416 107.568 233.34 106.714 234.768 106.714C236.042 106.714 236.77 107.428 236.77 108.884V113H238.114V108.73C238.114 106.546 236.84 105.51 235.034 105.51ZM247.548 109.332C247.548 107.05 246.022 105.51 243.88 105.51C241.738 105.51 240.156 107.092 240.156 109.29C240.156 111.502 241.752 113.084 244.146 113.084C245.378 113.084 246.4 112.664 247.072 111.88L246.33 111.012C245.784 111.614 245.056 111.908 244.188 111.908C242.718 111.908 241.668 111.04 241.5 109.738H247.52C247.534 109.612 247.548 109.444 247.548 109.332ZM243.88 106.644C245.182 106.644 246.12 107.526 246.26 108.772H241.5C241.64 107.512 242.592 106.644 243.88 106.644ZM253.574 113H254.918V102.612H253.574V113ZM260.386 105.51C259.196 105.51 258.09 105.846 257.32 106.462L257.88 107.47C258.454 106.98 259.35 106.672 260.232 106.672C261.562 106.672 262.22 107.33 262.22 108.464V108.73H260.092C257.88 108.73 257.11 109.71 257.11 110.9C257.11 112.188 258.174 113.084 259.854 113.084C261.016 113.084 261.842 112.692 262.29 112.02V113H263.564V108.52C263.564 106.49 262.416 105.51 260.386 105.51ZM260.078 112.048C259.056 112.048 258.44 111.586 258.44 110.844C258.44 110.214 258.818 109.696 260.148 109.696H262.22V110.732C261.884 111.586 261.086 112.048 260.078 112.048ZM267.259 111.894L271.641 106.462V105.58H265.621V106.686H269.919L265.537 112.132V113H271.753V111.894H267.259ZM278.865 105.58L276.303 111.516L273.713 105.58H272.313L275.589 112.986L275.351 113.504C274.987 114.358 274.581 114.652 273.937 114.652C273.433 114.652 272.971 114.456 272.607 114.106L272.033 115.114C272.495 115.562 273.223 115.8 273.937 115.8C275.071 115.8 275.925 115.31 276.583 113.742L280.181 105.58H278.865ZM46.93 122.612V126.7C46.314 125.902 45.39 125.51 44.34 125.51C42.17 125.51 40.588 127.022 40.588 129.29C40.588 131.558 42.17 133.084 44.34 133.084C45.432 133.084 46.384 132.664 46.986 131.824V133H48.274V122.612H46.93ZM44.452 131.908C43.024 131.908 41.946 130.872 41.946 129.29C41.946 127.708 43.024 126.686 44.452 126.686C45.866 126.686 46.944 127.708 46.944 129.29C46.944 130.872 45.866 131.908 44.452 131.908ZM54.195 133.084C56.421 133.084 58.045 131.502 58.045 129.29C58.045 127.078 56.421 125.51 54.195 125.51C51.969 125.51 50.331 127.078 50.331 129.29C50.331 131.502 51.969 133.084 54.195 133.084ZM54.195 131.908C52.767 131.908 51.689 130.872 51.689 129.29C51.689 127.708 52.767 126.686 54.195 126.686C55.623 126.686 56.687 127.708 56.687 129.29C56.687 130.872 55.623 131.908 54.195 131.908ZM65.9277 125.58V126.728C65.2977 125.916 64.2897 125.51 63.1837 125.51C61.0417 125.51 59.4177 126.952 59.4177 129.094C59.4177 131.236 61.0417 132.692 63.1837 132.692C64.2477 132.692 65.2137 132.314 65.8577 131.544V132.132C65.8577 133.812 65.0597 134.624 63.3097 134.624C62.2177 134.624 61.1397 134.246 60.4537 133.658L59.8097 134.694C60.6217 135.422 61.9937 135.8 63.3517 135.8C65.8717 135.8 67.2017 134.61 67.2017 131.992V125.58H65.9277ZM63.3377 131.516C61.8397 131.516 60.7757 130.522 60.7757 129.094C60.7757 127.652 61.8397 126.686 63.3377 126.686C64.8217 126.686 65.8857 127.652 65.8857 129.094C65.8857 130.522 64.8217 131.516 63.3377 131.516ZM77.6815 131.6C77.4015 131.824 77.0235 131.95 76.6315 131.95C75.8895 131.95 75.4695 131.502 75.4695 130.704V126.686H77.5975V125.58H75.4695V123.956H74.1255V125.58H72.8655V126.686H74.1255V130.76C74.1255 132.258 74.9795 133.084 76.4775 133.084C77.0795 133.084 77.6955 132.916 78.1015 132.566L77.6815 131.6ZM83.8883 125.51C82.7543 125.51 81.8303 125.916 81.2703 126.63V122.612H79.9263V133H81.2703V129.178C81.2703 127.568 82.1943 126.714 83.6223 126.714C84.8963 126.714 85.6243 127.428 85.6243 128.884V133H86.9683V128.73C86.9683 126.546 85.6943 125.51 83.8883 125.51ZM96.4027 129.332C96.4027 127.05 94.8767 125.51 92.7347 125.51C90.5927 125.51 89.0107 127.092 89.0107 129.29C89.0107 131.502 90.6067 133.084 93.0007 133.084C94.2327 133.084 95.2547 132.664 95.9267 131.88L95.1847 131.012C94.6387 131.614 93.9107 131.908 93.0427 131.908C91.5727 131.908 90.5227 131.04 90.3547 129.738H96.3747C96.3887 129.612 96.4027 129.444 96.4027 129.332ZM92.7347 126.644C94.0367 126.644 94.9747 127.526 95.1147 128.772H90.3547C90.4947 127.512 91.4467 126.644 92.7347 126.644ZM108.141 125.58V126.756C107.539 125.93 106.587 125.51 105.495 125.51C103.325 125.51 101.743 127.022 101.743 129.29C101.743 131.572 103.325 133.084 105.495 133.084C106.545 133.084 107.469 132.678 108.085 131.88V135.716H109.429V125.58H108.141ZM105.607 131.908C104.179 131.908 103.101 130.872 103.101 129.29C103.101 127.722 104.179 126.686 105.607 126.686C107.021 126.686 108.099 127.722 108.099 129.29C108.099 130.872 107.021 131.908 105.607 131.908ZM117.744 125.58V129.416C117.744 131.012 116.848 131.88 115.448 131.88C114.174 131.88 113.446 131.152 113.446 129.696V125.58H112.102V129.85C112.102 132.034 113.376 133.084 115.294 133.084C116.344 133.084 117.268 132.65 117.814 131.88V133H119.088V125.58H117.744ZM122.518 124.152C123.05 124.152 123.428 123.76 123.428 123.256C123.428 122.78 123.036 122.402 122.518 122.402C122 122.402 121.608 122.794 121.608 123.284C121.608 123.774 122 124.152 122.518 124.152ZM121.846 133H123.19V125.58H121.846V133ZM129.19 133.084C130.52 133.084 131.626 132.524 132.214 131.488L131.192 130.844C130.716 131.572 129.988 131.908 129.176 131.908C127.72 131.908 126.628 130.9 126.628 129.29C126.628 127.708 127.72 126.686 129.176 126.686C129.988 126.686 130.716 127.022 131.192 127.75L132.214 127.092C131.626 126.056 130.52 125.51 129.19 125.51C126.908 125.51 125.27 127.078 125.27 129.29C125.27 131.502 126.908 133.084 129.19 133.084ZM139.729 133H141.381L137.951 128.646L141.073 125.58H139.449L135.403 129.276V122.612H134.059V133H135.403V130.97L136.943 129.542L139.729 133ZM149.561 123.634C149.953 123.634 150.317 123.774 150.597 123.984L151.003 122.962C150.625 122.668 150.065 122.528 149.491 122.528C147.909 122.528 147.041 123.48 147.041 124.922V125.58H145.781V126.686H147.041V133H148.385V126.686H150.513V125.58H148.357V124.936C148.357 124.082 148.763 123.634 149.561 123.634ZM155.05 133.084C157.276 133.084 158.9 131.502 158.9 129.29C158.9 127.078 157.276 125.51 155.05 125.51C152.824 125.51 151.186 127.078 151.186 129.29C151.186 131.502 152.824 133.084 155.05 133.084ZM155.05 131.908C153.622 131.908 152.544 130.872 152.544 129.29C152.544 127.708 153.622 126.686 155.05 126.686C156.478 126.686 157.542 127.708 157.542 129.29C157.542 130.872 156.478 131.908 155.05 131.908ZM166.97 133L164.016 129.206L166.816 125.58H165.346L163.316 128.254L161.272 125.58H159.774L162.56 129.206L159.634 133H161.132L163.302 130.158L165.444 133H166.97ZM173.339 124.152C173.871 124.152 174.249 123.76 174.249 123.256C174.249 122.78 173.857 122.402 173.339 122.402C172.821 122.402 172.429 122.794 172.429 123.284C172.429 123.774 172.821 124.152 173.339 124.152ZM171.645 135.8C173.171 135.8 174.011 134.848 174.011 133.336V125.58H172.667V133.364C172.667 134.218 172.275 134.666 171.561 134.666C171.127 134.666 170.735 134.54 170.469 134.316L170.035 135.352C170.413 135.66 171.029 135.8 171.645 135.8ZM182.347 125.58V129.416C182.347 131.012 181.451 131.88 180.051 131.88C178.777 131.88 178.049 131.152 178.049 129.696V125.58H176.705V129.85C176.705 132.034 177.979 133.084 179.897 133.084C180.947 133.084 181.871 132.65 182.417 131.88V133H183.691V125.58H182.347ZM195.732 125.51C194.472 125.51 193.436 126.042 192.876 126.882C192.386 125.958 191.434 125.51 190.3 125.51C189.18 125.51 188.27 125.93 187.738 126.686V125.58H186.45V133H187.794V129.178C187.794 127.568 188.676 126.714 190.02 126.714C191.238 126.714 191.938 127.428 191.938 128.884V133H193.282V129.178C193.282 127.568 194.164 126.714 195.508 126.714C196.726 126.714 197.426 127.428 197.426 128.884V133H198.77V128.73C198.77 126.546 197.538 125.51 195.732 125.51ZM205.377 125.51C204.285 125.51 203.333 125.93 202.731 126.756V125.58H201.443V135.716H202.787V131.88C203.403 132.678 204.327 133.084 205.377 133.084C207.547 133.084 209.129 131.572 209.129 129.29C209.129 127.022 207.547 125.51 205.377 125.51ZM205.265 131.908C203.851 131.908 202.773 130.872 202.773 129.29C202.773 127.722 203.851 126.686 205.265 126.686C206.693 126.686 207.771 127.722 207.771 129.29C207.771 130.872 206.693 131.908 205.265 131.908ZM213.314 133.084C215.288 133.084 216.52 132.23 216.52 130.886C216.52 128.002 211.816 129.43 211.816 127.68C211.816 127.092 212.39 126.658 213.566 126.658C214.294 126.658 215.036 126.812 215.708 127.246L216.282 126.182C215.638 125.762 214.546 125.51 213.58 125.51C211.676 125.51 210.486 126.406 210.486 127.736C210.486 130.69 215.176 129.248 215.176 130.914C215.176 131.544 214.658 131.922 213.412 131.922C212.446 131.922 211.438 131.6 210.808 131.152L210.248 132.216C210.864 132.706 212.082 133.084 213.314 133.084ZM225.537 133.084C227.763 133.084 229.387 131.502 229.387 129.29C229.387 127.078 227.763 125.51 225.537 125.51C223.311 125.51 221.673 127.078 221.673 129.29C221.673 131.502 223.311 133.084 225.537 133.084ZM225.537 131.908C224.109 131.908 223.031 130.872 223.031 129.29C223.031 127.708 224.109 126.686 225.537 126.686C226.965 126.686 228.029 127.708 228.029 129.29C228.029 130.872 226.965 131.908 225.537 131.908ZM236.491 125.58L233.887 131.53L231.339 125.58H229.939L233.187 133H234.559L237.807 125.58H236.491ZM245.762 129.332C245.762 127.05 244.236 125.51 242.094 125.51C239.952 125.51 238.37 127.092 238.37 129.29C238.37 131.502 239.966 133.084 242.36 133.084C243.592 133.084 244.614 132.664 245.286 131.88L244.544 131.012C243.998 131.614 243.27 131.908 242.402 131.908C240.932 131.908 239.882 131.04 239.714 129.738H245.734C245.748 129.612 245.762 129.444 245.762 129.332ZM242.094 126.644C243.396 126.644 244.334 127.526 244.474 128.772H239.714C239.854 127.512 240.806 126.644 242.094 126.644ZM249.116 126.826V125.58H247.828V133H249.172V129.304C249.172 127.68 250.068 126.798 251.51 126.798C251.608 126.798 251.706 126.798 251.818 126.812V125.51C250.516 125.51 249.592 125.958 249.116 126.826ZM261.482 131.6C261.202 131.824 260.824 131.95 260.432 131.95C259.69 131.95 259.27 131.502 259.27 130.704V126.686H261.398V125.58H259.27V123.956H257.926V125.58H256.666V126.686H257.926V130.76C257.926 132.258 258.78 133.084 260.278 133.084C260.88 133.084 261.496 132.916 261.902 132.566L261.482 131.6ZM267.689 125.51C266.555 125.51 265.631 125.916 265.071 126.63V122.612H263.727V133H265.071V129.178C265.071 127.568 265.995 126.714 267.423 126.714C268.697 126.714 269.425 127.428 269.425 128.884V133H270.769V128.73C270.769 126.546 269.495 125.51 267.689 125.51ZM280.203 129.332C280.203 127.05 278.677 125.51 276.535 125.51C274.393 125.51 272.811 127.092 272.811 129.29C272.811 131.502 274.407 133.084 276.801 133.084C278.033 133.084 279.055 132.664 279.727 131.88L278.985 131.012C278.439 131.614 277.711 131.908 276.843 131.908C275.373 131.908 274.323 131.04 274.155 129.738H280.175C280.189 129.612 280.203 129.444 280.203 129.332ZM276.535 126.644C277.837 126.644 278.775 127.526 278.915 128.772H274.155C274.295 127.512 275.247 126.644 276.535 126.644ZM41.274 153H42.618V142.612H41.274V153ZM48.0862 145.51C46.8962 145.51 45.7902 145.846 45.0202 146.462L45.5802 147.47C46.1542 146.98 47.0502 146.672 47.9322 146.672C49.2622 146.672 49.9202 147.33 49.9202 148.464V148.73H47.7922C45.5802 148.73 44.8102 149.71 44.8102 150.9C44.8102 152.188 45.8742 153.084 47.5542 153.084C48.7162 153.084 49.5422 152.692 49.9902 152.02V153H51.2642V148.52C51.2642 146.49 50.1162 145.51 48.0862 145.51ZM47.7782 152.048C46.7562 152.048 46.1402 151.586 46.1402 150.844C46.1402 150.214 46.5182 149.696 47.8482 149.696H49.9202V150.732C49.5842 151.586 48.7862 152.048 47.7782 152.048ZM54.9593 151.894L59.3413 146.462V145.58H53.3213V146.686H57.6193L53.2373 152.132V153H59.4533V151.894H54.9593ZM66.5654 145.58L64.0034 151.516L61.4134 145.58H60.0134L63.2894 152.986L63.0514 153.504C62.6874 154.358 62.2814 154.652 61.6374 154.652C61.1334 154.652 60.6714 154.456 60.3074 154.106L59.7334 155.114C60.1954 155.562 60.9234 155.8 61.6374 155.8C62.7714 155.8 63.6254 155.31 64.2834 153.742L67.8814 145.58H66.5654ZM78.9515 142.612V146.7C78.3355 145.902 77.4115 145.51 76.3615 145.51C74.1915 145.51 72.6095 147.022 72.6095 149.29C72.6095 151.558 74.1915 153.084 76.3615 153.084C77.4535 153.084 78.4055 152.664 79.0075 151.824V153H80.2955V142.612H78.9515ZM76.4735 151.908C75.0455 151.908 73.9675 150.872 73.9675 149.29C73.9675 147.708 75.0455 146.686 76.4735 146.686C77.8875 146.686 78.9655 147.708 78.9655 149.29C78.9655 150.872 77.8875 151.908 76.4735 151.908ZM86.2165 153.084C88.4425 153.084 90.0665 151.502 90.0665 149.29C90.0665 147.078 88.4425 145.51 86.2165 145.51C83.9905 145.51 82.3525 147.078 82.3525 149.29C82.3525 151.502 83.9905 153.084 86.2165 153.084ZM86.2165 151.908C84.7885 151.908 83.7105 150.872 83.7105 149.29C83.7105 147.708 84.7885 146.686 86.2165 146.686C87.6445 146.686 88.7085 147.708 88.7085 149.29C88.7085 150.872 87.6445 151.908 86.2165 151.908ZM97.9492 145.58V146.728C97.3192 145.916 96.3112 145.51 95.2052 145.51C93.0632 145.51 91.4392 146.952 91.4392 149.094C91.4392 151.236 93.0632 152.692 95.2052 152.692C96.2692 152.692 97.2352 152.314 97.8792 151.544V152.132C97.8792 153.812 97.0812 154.624 95.3312 154.624C94.2392 154.624 93.1612 154.246 92.4752 153.658L91.8312 154.694C92.6432 155.422 94.0152 155.8 95.3732 155.8C97.8932 155.8 99.2232 154.61 99.2232 151.992V145.58H97.9492ZM95.3592 151.516C93.8612 151.516 92.7972 150.522 92.7972 149.094C92.7972 147.652 93.8612 146.686 95.3592 146.686C96.8432 146.686 97.9072 147.652 97.9072 149.094C97.9072 150.522 96.8432 151.516 95.3592 151.516Z" fill="#737373"/>
<rect x="0.5" y="0.5" width="327" height="192" stroke="#E8E8E8"/>
<defs>
<clipPath id="clip0_993_599">
<rect width="206" height="48" fill="white" transform="translate(40 35)"/>
</clipPath>
<clipPath id="clip1_993_599">
<rect width="48" height="48" fill="white" transform="translate(40 35)"/>
</clipPath>
<clipPath id="clip2_993_599">
<rect width="48" height="47.4146" fill="white" transform="translate(40 35)"/>
</clipPath>
</defs>
</svg>
