<svg width="329" height="193" viewBox="0 0 329 193" fill="none" xmlns="http://www.w3.org/2000/svg">
<rect x="0.5" y="0.5" width="327" height="192" fill="white"/>
<g clip-path="url(#clip0_993_609)">
<g clip-path="url(#clip1_993_609)">
<path d="M69.1416 48.624H81.1395V52.0693H69.1416V48.624Z" fill="#00A0C1"/>
<path d="M69.1416 57.2373H81.1395V60.6826H69.1416V57.2373Z" fill="#00A0C1"/>
<path d="M69.1416 65.8506H81.1395V69.2959H69.1416V65.8506Z" fill="#00A0C1"/>
<path d="M84.5674 40.0112H43.4319C42.523 40.0121 41.6516 40.3754 41.0089 41.0213C40.3663 41.6673 40.0048 42.5431 40.0039 43.4565V74.4644C40.0048 75.3779 40.3663 76.2537 41.0089 76.8996C41.6516 77.5455 42.523 77.9088 43.4319 77.9097H84.5674C85.4761 77.9084 86.3472 77.5449 86.9898 76.8991C87.6324 76.2533 87.994 75.3777 87.9953 74.4644V43.4565C87.9944 42.5431 87.633 41.6673 86.9903 41.0213C86.3477 40.3754 85.4763 40.0121 84.5674 40.0112ZM43.4319 43.4565H62.2856V74.4644H43.4319V43.4565ZM65.7136 74.4644V43.4565H84.5674L84.5708 74.4644H65.7136Z" fill="#00A0C1"/>
</g>
<path d="M109.272 65H104.376V53.816H108.728C109.485 53.816 110.136 53.9067 110.68 54.088C111.235 54.2693 111.651 54.5147 111.928 54.824C112.429 55.4 112.68 56.0507 112.68 56.776C112.68 57.6507 112.397 58.3013 111.832 58.728C111.64 58.8773 111.507 58.9733 111.432 59.016C111.357 59.048 111.224 59.1067 111.032 59.192C111.725 59.3413 112.275 59.656 112.68 60.136C113.096 60.6053 113.304 61.192 113.304 61.896C113.304 62.6747 113.037 63.3627 112.504 63.96C111.885 64.6533 110.808 65 109.272 65ZM106.872 58.344H108.056C108.749 58.344 109.261 58.2693 109.592 58.12C109.933 57.9707 110.104 57.6507 110.104 57.16C110.104 56.6587 109.949 56.328 109.64 56.168C109.331 56.008 108.808 55.928 108.072 55.928H106.872V58.344ZM106.872 62.888H108.584C109.299 62.888 109.832 62.8027 110.184 62.632C110.547 62.4507 110.728 62.104 110.728 61.592C110.728 61.0693 110.536 60.728 110.152 60.568C109.779 60.3973 109.176 60.312 108.344 60.312H106.872V62.888ZM120.741 61.032V56.392H123.157V65H120.741V63.864C120.144 64.7067 119.37 65.128 118.421 65.128C117.482 65.128 116.693 64.8347 116.053 64.248C115.413 63.6507 115.093 62.7707 115.093 61.608V56.392H117.509V61.08C117.509 62.4027 117.994 63.064 118.965 63.064C119.445 63.064 119.861 62.8933 120.213 62.552C120.565 62.2 120.741 61.6933 120.741 61.032ZM132.004 62.328C132.004 63.1707 131.689 63.848 131.06 64.36C130.441 64.872 129.652 65.128 128.692 65.128C128.052 65.128 127.385 65.016 126.692 64.792C125.998 64.5573 125.374 64.216 124.82 63.768L125.876 62.264C126.772 62.9573 127.726 63.304 128.74 63.304C129.049 63.304 129.294 63.2453 129.476 63.128C129.657 63 129.748 62.8347 129.748 62.632C129.748 62.4293 129.62 62.2427 129.364 62.072C129.118 61.9013 128.756 61.7413 128.276 61.592C127.806 61.4427 127.444 61.3147 127.188 61.208C126.942 61.1013 126.66 60.9467 126.34 60.744C125.689 60.3387 125.364 59.7413 125.364 58.952C125.364 58.152 125.684 57.5013 126.324 57C126.964 56.4987 127.79 56.248 128.804 56.248C129.817 56.248 130.83 56.5893 131.844 57.272L130.948 58.872C130.201 58.36 129.454 58.104 128.708 58.104C127.972 58.104 127.604 58.3067 127.604 58.712C127.604 58.936 127.721 59.112 127.956 59.24C128.19 59.368 128.58 59.5173 129.124 59.688C129.668 59.8587 130.052 59.992 130.276 60.088C130.51 60.1733 130.788 60.312 131.108 60.504C131.705 60.8667 132.004 61.4747 132.004 62.328ZM136.336 65H133.936V56.392H136.336V65ZM134.128 55.304C133.861 55.0267 133.728 54.6907 133.728 54.296C133.728 53.9013 133.861 53.5707 134.128 53.304C134.405 53.0267 134.741 52.888 135.136 52.888C135.531 52.888 135.861 53.0267 136.128 53.304C136.405 53.5707 136.544 53.9013 136.544 54.296C136.544 54.6907 136.405 55.0267 136.128 55.304C135.861 55.5707 135.531 55.704 135.136 55.704C134.741 55.704 134.405 55.5707 134.128 55.304ZM141.108 60.2V65H138.708V56.392H141.108V57.352C141.833 56.616 142.649 56.248 143.556 56.248C144.463 56.248 145.22 56.568 145.828 57.208C146.447 57.848 146.756 58.7013 146.756 59.768V65H144.356V60.136C144.356 58.8133 143.871 58.152 142.9 58.152C142.42 58.152 141.999 58.328 141.636 58.68C141.284 59.0213 141.108 59.528 141.108 60.2ZM156.483 63.752C155.512 64.6693 154.371 65.128 153.059 65.128C151.757 65.128 150.68 64.728 149.827 63.928C148.973 63.1173 148.547 62.0347 148.547 60.68C148.547 59.3253 148.979 58.248 149.843 57.448C150.717 56.648 151.747 56.248 152.931 56.248C154.115 56.248 155.117 56.6053 155.939 57.32C156.771 58.0347 157.187 59.016 157.187 60.264V61.544H150.915C150.989 62.0133 151.235 62.3973 151.651 62.696C152.067 62.9947 152.536 63.144 153.059 63.144C153.901 63.144 154.595 62.8613 155.139 62.296L156.483 63.752ZM154.755 59.832C154.701 59.32 154.509 58.9253 154.179 58.648C153.848 58.3707 153.443 58.232 152.963 58.232C152.493 58.232 152.061 58.376 151.667 58.664C151.272 58.952 151.043 59.3413 150.979 59.832H154.755ZM165.497 62.328C165.497 63.1707 165.183 63.848 164.553 64.36C163.935 64.872 163.145 65.128 162.185 65.128C161.545 65.128 160.879 65.016 160.185 64.792C159.492 64.5573 158.868 64.216 158.313 63.768L159.369 62.264C160.265 62.9573 161.22 63.304 162.233 63.304C162.543 63.304 162.788 63.2453 162.969 63.128C163.151 63 163.241 62.8347 163.241 62.632C163.241 62.4293 163.113 62.2427 162.857 62.072C162.612 61.9013 162.249 61.7413 161.769 61.592C161.3 61.4427 160.937 61.3147 160.681 61.208C160.436 61.1013 160.153 60.9467 159.833 60.744C159.183 60.3387 158.857 59.7413 158.857 58.952C158.857 58.152 159.177 57.5013 159.817 57C160.457 56.4987 161.284 56.248 162.297 56.248C163.311 56.248 164.324 56.5893 165.337 57.272L164.441 58.872C163.695 58.36 162.948 58.104 162.201 58.104C161.465 58.104 161.097 58.3067 161.097 58.712C161.097 58.936 161.215 59.112 161.449 59.24C161.684 59.368 162.073 59.5173 162.617 59.688C163.161 59.8587 163.545 59.992 163.769 60.088C164.004 60.1733 164.281 60.312 164.601 60.504C165.199 60.8667 165.497 61.4747 165.497 62.328ZM173.91 62.328C173.91 63.1707 173.595 63.848 172.966 64.36C172.347 64.872 171.558 65.128 170.598 65.128C169.958 65.128 169.291 65.016 168.598 64.792C167.904 64.5573 167.28 64.216 166.726 63.768L167.782 62.264C168.678 62.9573 169.632 63.304 170.646 63.304C170.955 63.304 171.2 63.2453 171.382 63.128C171.563 63 171.654 62.8347 171.654 62.632C171.654 62.4293 171.526 62.2427 171.27 62.072C171.024 61.9013 170.662 61.7413 170.182 61.592C169.712 61.4427 169.35 61.3147 169.094 61.208C168.848 61.1013 168.566 60.9467 168.246 60.744C167.595 60.3387 167.27 59.7413 167.27 58.952C167.27 58.152 167.59 57.5013 168.23 57C168.87 56.4987 169.696 56.248 170.71 56.248C171.723 56.248 172.736 56.5893 173.75 57.272L172.854 58.872C172.107 58.36 171.36 58.104 170.614 58.104C169.878 58.104 169.51 58.3067 169.51 58.712C169.51 58.936 169.627 59.112 169.862 59.24C170.096 59.368 170.486 59.5173 171.03 59.688C171.574 59.8587 171.958 59.992 172.182 60.088C172.416 60.1733 172.694 60.312 173.014 60.504C173.611 60.8667 173.91 61.4747 173.91 62.328ZM187.665 59.304H190.177V63.272C189.068 64.5093 187.532 65.128 185.569 65.128C183.926 65.128 182.545 64.584 181.425 63.496C180.316 62.408 179.761 61.0373 179.761 59.384C179.761 57.72 180.326 56.3333 181.457 55.224C182.598 54.1147 183.969 53.56 185.569 53.56C187.18 53.56 188.577 54.088 189.761 55.144L188.465 57.016C187.964 56.5787 187.5 56.28 187.073 56.12C186.657 55.9493 186.204 55.864 185.713 55.864C184.764 55.864 183.964 56.1893 183.313 56.84C182.662 57.48 182.337 58.328 182.337 59.384C182.337 60.44 182.646 61.288 183.265 61.928C183.894 62.5573 184.641 62.872 185.505 62.872C186.369 62.872 187.089 62.7067 187.665 62.376V59.304ZM196.789 58.504C196.074 58.504 195.541 58.76 195.189 59.272C194.837 59.7733 194.661 60.44 194.661 61.272V65H192.261V56.392H194.661V57.528C194.97 57.176 195.354 56.8773 195.813 56.632C196.282 56.3867 196.757 56.2587 197.237 56.248L197.253 58.504H196.789ZM200.734 60.696C200.734 61.4 200.931 61.976 201.326 62.424C201.731 62.8613 202.243 63.08 202.862 63.08C203.491 63.08 204.003 62.8613 204.398 62.424C204.803 61.976 205.006 61.4 205.006 60.696C205.006 59.992 204.803 59.416 204.398 58.968C204.003 58.52 203.491 58.296 202.862 58.296C202.243 58.296 201.731 58.52 201.326 58.968C200.931 59.416 200.734 59.992 200.734 60.696ZM207.422 60.696C207.422 61.944 206.99 62.9947 206.126 63.848C205.262 64.7013 204.174 65.128 202.862 65.128C201.561 65.128 200.478 64.7013 199.614 63.848C198.75 62.9947 198.318 61.944 198.318 60.696C198.318 59.448 198.75 58.3973 199.614 57.544C200.478 56.68 201.561 56.248 202.862 56.248C204.174 56.248 205.262 56.68 206.126 57.544C206.99 58.3973 207.422 59.448 207.422 60.696ZM213.628 65H211.148L208.22 56.392H210.7L212.38 61.592L214.06 56.392H216.38L218.06 61.592L219.74 56.392H222.236L219.308 65H216.812L215.228 60.312L213.628 65ZM226.086 65H223.686V56.392H226.086V65ZM223.878 55.304C223.611 55.0267 223.478 54.6907 223.478 54.296C223.478 53.9013 223.611 53.5707 223.878 53.304C224.155 53.0267 224.491 52.888 224.886 52.888C225.281 52.888 225.611 53.0267 225.878 53.304C226.155 53.5707 226.294 53.9013 226.294 54.296C226.294 54.6907 226.155 55.0267 225.878 55.304C225.611 55.5707 225.281 55.704 224.886 55.704C224.491 55.704 224.155 55.5707 223.878 55.304ZM230.858 60.2V65H228.458V56.392H230.858V57.352C231.583 56.616 232.399 56.248 233.306 56.248C234.213 56.248 234.97 56.568 235.578 57.208C236.197 57.848 236.506 58.7013 236.506 59.768V65H234.106V60.136C234.106 58.8133 233.621 58.152 232.65 58.152C232.17 58.152 231.749 58.328 231.386 58.68C231.034 59.0213 230.858 59.528 230.858 60.2ZM244.809 60.52C244.809 59.8267 244.617 59.2827 244.233 58.888C243.849 58.4933 243.374 58.296 242.809 58.296C242.243 58.296 241.753 58.4933 241.337 58.888C240.931 59.2827 240.729 59.8213 240.729 60.504C240.729 61.1867 240.926 61.7413 241.321 62.168C241.726 62.584 242.217 62.792 242.793 62.792C243.369 62.792 243.849 62.584 244.233 62.168C244.617 61.752 244.809 61.2027 244.809 60.52ZM245.145 63.544C244.387 64.3867 243.443 64.808 242.313 64.808C241.193 64.808 240.243 64.4293 239.465 63.672C238.697 62.904 238.313 61.8853 238.313 60.616C238.313 59.336 238.707 58.2907 239.497 57.48C240.297 56.6587 241.209 56.248 242.233 56.248C243.257 56.248 244.105 56.6693 244.777 57.512V56.376H247.177V63.88C247.177 64.648 247.043 65.3307 246.777 65.928C246.51 66.5253 246.153 66.9947 245.705 67.336C244.819 68.04 243.774 68.392 242.569 68.392C241.929 68.392 241.273 68.2853 240.601 68.072C239.939 67.8693 239.358 67.576 238.857 67.192L239.785 65.384C240.574 65.9813 241.406 66.28 242.281 66.28C243.166 66.28 243.865 66.0613 244.377 65.624C244.889 65.1867 245.145 64.4933 245.145 63.544Z" fill="#252B42"/>
</g>
<path d="M45.026 111.6C44.746 111.824 44.368 111.95 43.976 111.95C43.234 111.95 42.814 111.502 42.814 110.704V106.686H44.942V105.58H42.814V103.956H41.47V105.58H40.21V106.686H41.47V110.76C41.47 112.258 42.324 113.084 43.822 113.084C44.424 113.084 45.04 112.916 45.446 112.566L45.026 111.6ZM51.2329 105.51C50.0989 105.51 49.1749 105.916 48.6149 106.63V102.612H47.2709V113H48.6149V109.178C48.6149 107.568 49.5389 106.714 50.9669 106.714C52.2409 106.714 52.9689 107.428 52.9689 108.884V113H54.3129V108.73C54.3129 106.546 53.0389 105.51 51.2329 105.51ZM63.7472 109.332C63.7472 107.05 62.2212 105.51 60.0792 105.51C57.9372 105.51 56.3552 107.092 56.3552 109.29C56.3552 111.502 57.9512 113.084 60.3452 113.084C61.5772 113.084 62.5992 112.664 63.2712 111.88L62.5292 111.012C61.9832 111.614 61.2552 111.908 60.3872 111.908C58.9172 111.908 57.8672 111.04 57.6992 109.738H63.7192C63.7332 109.612 63.7472 109.444 63.7472 109.332ZM60.0792 106.644C61.3812 106.644 62.3192 107.526 62.4592 108.772H57.6992C57.8392 107.512 58.7912 106.644 60.0792 106.644ZM75.4852 105.58V106.756C74.8832 105.93 73.9312 105.51 72.8392 105.51C70.6692 105.51 69.0872 107.022 69.0872 109.29C69.0872 111.572 70.6692 113.084 72.8392 113.084C73.8892 113.084 74.8132 112.678 75.4292 111.88V115.716H76.7732V105.58H75.4852ZM72.9512 111.908C71.5232 111.908 70.4452 110.872 70.4452 109.29C70.4452 107.722 71.5232 106.686 72.9512 106.686C74.3652 106.686 75.4432 107.722 75.4432 109.29C75.4432 110.872 74.3652 111.908 72.9512 111.908ZM85.0882 105.58V109.416C85.0882 111.012 84.1922 111.88 82.7922 111.88C81.5182 111.88 80.7902 111.152 80.7902 109.696V105.58H79.4462V109.85C79.4462 112.034 80.7202 113.084 82.6382 113.084C83.6882 113.084 84.6122 112.65 85.1582 111.88V113H86.4322V105.58H85.0882ZM89.8628 104.152C90.3948 104.152 90.7728 103.76 90.7728 103.256C90.7728 102.78 90.3808 102.402 89.8628 102.402C89.3448 102.402 88.9528 102.794 88.9528 103.284C88.9528 103.774 89.3448 104.152 89.8628 104.152ZM89.1908 113H90.5348V105.58H89.1908V113ZM96.535 113.084C97.865 113.084 98.971 112.524 99.559 111.488L98.537 110.844C98.061 111.572 97.333 111.908 96.521 111.908C95.065 111.908 93.973 110.9 93.973 109.29C93.973 107.708 95.065 106.686 96.521 106.686C97.333 106.686 98.061 107.022 98.537 107.75L99.559 107.092C98.971 106.056 97.865 105.51 96.535 105.51C94.253 105.51 92.615 107.078 92.615 109.29C92.615 111.502 94.253 113.084 96.535 113.084ZM107.073 113H108.725L105.295 108.646L108.417 105.58H106.793L102.747 109.276V102.612H101.403V113H102.747V110.97L104.287 109.542L107.073 113ZM116.906 103.634C117.298 103.634 117.662 103.774 117.942 103.984L118.348 102.962C117.97 102.668 117.41 102.528 116.836 102.528C115.254 102.528 114.386 103.48 114.386 104.922V105.58H113.126V106.686H114.386V113H115.73V106.686H117.858V105.58H115.702V104.936C115.702 104.082 116.108 103.634 116.906 103.634ZM122.394 113.084C124.62 113.084 126.244 111.502 126.244 109.29C126.244 107.078 124.62 105.51 122.394 105.51C120.168 105.51 118.53 107.078 118.53 109.29C118.53 111.502 120.168 113.084 122.394 113.084ZM122.394 111.908C120.966 111.908 119.888 110.872 119.888 109.29C119.888 107.708 120.966 106.686 122.394 106.686C123.822 106.686 124.886 107.708 124.886 109.29C124.886 110.872 123.822 111.908 122.394 111.908ZM134.315 113L131.361 109.206L134.161 105.58H132.691L130.661 108.254L128.617 105.58H127.119L129.905 109.206L126.979 113H128.477L130.647 110.158L132.789 113H134.315ZM140.683 104.152C141.215 104.152 141.593 103.76 141.593 103.256C141.593 102.78 141.201 102.402 140.683 102.402C140.165 102.402 139.773 102.794 139.773 103.284C139.773 103.774 140.165 104.152 140.683 104.152ZM138.989 115.8C140.515 115.8 141.355 114.848 141.355 113.336V105.58H140.011V113.364C140.011 114.218 139.619 114.666 138.905 114.666C138.471 114.666 138.079 114.54 137.813 114.316L137.379 115.352C137.757 115.66 138.373 115.8 138.989 115.8ZM149.692 105.58V109.416C149.692 111.012 148.796 111.88 147.396 111.88C146.122 111.88 145.394 111.152 145.394 109.696V105.58H144.05V109.85C144.05 112.034 145.324 113.084 147.242 113.084C148.292 113.084 149.216 112.65 149.762 111.88V113H151.036V105.58H149.692ZM163.076 105.51C161.816 105.51 160.78 106.042 160.22 106.882C159.73 105.958 158.778 105.51 157.644 105.51C156.524 105.51 155.614 105.93 155.082 106.686V105.58H153.794V113H155.138V109.178C155.138 107.568 156.02 106.714 157.364 106.714C158.582 106.714 159.282 107.428 159.282 108.884V113H160.626V109.178C160.626 107.568 161.508 106.714 162.852 106.714C164.07 106.714 164.77 107.428 164.77 108.884V113H166.114V108.73C166.114 106.546 164.882 105.51 163.076 105.51ZM172.721 105.51C171.629 105.51 170.677 105.93 170.075 106.756V105.58H168.787V115.716H170.131V111.88C170.747 112.678 171.671 113.084 172.721 113.084C174.891 113.084 176.473 111.572 176.473 109.29C176.473 107.022 174.891 105.51 172.721 105.51ZM172.609 111.908C171.195 111.908 170.117 110.872 170.117 109.29C170.117 107.722 171.195 106.686 172.609 106.686C174.037 106.686 175.115 107.722 175.115 109.29C175.115 110.872 174.037 111.908 172.609 111.908ZM180.658 113.084C182.632 113.084 183.864 112.23 183.864 110.886C183.864 108.002 179.16 109.43 179.16 107.68C179.16 107.092 179.734 106.658 180.91 106.658C181.638 106.658 182.38 106.812 183.052 107.246L183.626 106.182C182.982 105.762 181.89 105.51 180.924 105.51C179.02 105.51 177.83 106.406 177.83 107.736C177.83 110.69 182.52 109.248 182.52 110.914C182.52 111.544 182.002 111.922 180.756 111.922C179.79 111.922 178.782 111.6 178.152 111.152L177.592 112.216C178.208 112.706 179.426 113.084 180.658 113.084ZM192.882 113.084C195.108 113.084 196.732 111.502 196.732 109.29C196.732 107.078 195.108 105.51 192.882 105.51C190.656 105.51 189.018 107.078 189.018 109.29C189.018 111.502 190.656 113.084 192.882 113.084ZM192.882 111.908C191.454 111.908 190.376 110.872 190.376 109.29C190.376 107.708 191.454 106.686 192.882 106.686C194.31 106.686 195.374 107.708 195.374 109.29C195.374 110.872 194.31 111.908 192.882 111.908ZM203.835 105.58L201.231 111.53L198.683 105.58H197.283L200.531 113H201.903L205.151 105.58H203.835ZM213.107 109.332C213.107 107.05 211.581 105.51 209.439 105.51C207.297 105.51 205.715 107.092 205.715 109.29C205.715 111.502 207.311 113.084 209.705 113.084C210.937 113.084 211.959 112.664 212.631 111.88L211.889 111.012C211.343 111.614 210.615 111.908 209.747 111.908C208.277 111.908 207.227 111.04 207.059 109.738H213.079C213.093 109.612 213.107 109.444 213.107 109.332ZM209.439 106.644C210.741 106.644 211.679 107.526 211.819 108.772H207.059C207.199 107.512 208.151 106.644 209.439 106.644ZM216.461 106.826V105.58H215.173V113H216.517V109.304C216.517 107.68 217.413 106.798 218.855 106.798C218.953 106.798 219.051 106.798 219.163 106.812V105.51C217.861 105.51 216.937 105.958 216.461 106.826ZM228.827 111.6C228.547 111.824 228.169 111.95 227.777 111.95C227.035 111.95 226.615 111.502 226.615 110.704V106.686H228.743V105.58H226.615V103.956H225.271V105.58H224.011V106.686H225.271V110.76C225.271 112.258 226.125 113.084 227.623 113.084C228.225 113.084 228.841 112.916 229.247 112.566L228.827 111.6ZM235.034 105.51C233.9 105.51 232.976 105.916 232.416 106.63V102.612H231.072V113H232.416V109.178C232.416 107.568 233.34 106.714 234.768 106.714C236.042 106.714 236.77 107.428 236.77 108.884V113H238.114V108.73C238.114 106.546 236.84 105.51 235.034 105.51ZM247.548 109.332C247.548 107.05 246.022 105.51 243.88 105.51C241.738 105.51 240.156 107.092 240.156 109.29C240.156 111.502 241.752 113.084 244.146 113.084C245.378 113.084 246.4 112.664 247.072 111.88L246.33 111.012C245.784 111.614 245.056 111.908 244.188 111.908C242.718 111.908 241.668 111.04 241.5 109.738H247.52C247.534 109.612 247.548 109.444 247.548 109.332ZM243.88 106.644C245.182 106.644 246.12 107.526 246.26 108.772H241.5C241.64 107.512 242.592 106.644 243.88 106.644ZM253.574 113H254.918V102.612H253.574V113ZM260.386 105.51C259.196 105.51 258.09 105.846 257.32 106.462L257.88 107.47C258.454 106.98 259.35 106.672 260.232 106.672C261.562 106.672 262.22 107.33 262.22 108.464V108.73H260.092C257.88 108.73 257.11 109.71 257.11 110.9C257.11 112.188 258.174 113.084 259.854 113.084C261.016 113.084 261.842 112.692 262.29 112.02V113H263.564V108.52C263.564 106.49 262.416 105.51 260.386 105.51ZM260.078 112.048C259.056 112.048 258.44 111.586 258.44 110.844C258.44 110.214 258.818 109.696 260.148 109.696H262.22V110.732C261.884 111.586 261.086 112.048 260.078 112.048ZM267.259 111.894L271.641 106.462V105.58H265.621V106.686H269.919L265.537 112.132V113H271.753V111.894H267.259ZM278.865 105.58L276.303 111.516L273.713 105.58H272.313L275.589 112.986L275.351 113.504C274.987 114.358 274.581 114.652 273.937 114.652C273.433 114.652 272.971 114.456 272.607 114.106L272.033 115.114C272.495 115.562 273.223 115.8 273.937 115.8C275.071 115.8 275.925 115.31 276.583 113.742L280.181 105.58H278.865ZM46.93 122.612V126.7C46.314 125.902 45.39 125.51 44.34 125.51C42.17 125.51 40.588 127.022 40.588 129.29C40.588 131.558 42.17 133.084 44.34 133.084C45.432 133.084 46.384 132.664 46.986 131.824V133H48.274V122.612H46.93ZM44.452 131.908C43.024 131.908 41.946 130.872 41.946 129.29C41.946 127.708 43.024 126.686 44.452 126.686C45.866 126.686 46.944 127.708 46.944 129.29C46.944 130.872 45.866 131.908 44.452 131.908ZM54.195 133.084C56.421 133.084 58.045 131.502 58.045 129.29C58.045 127.078 56.421 125.51 54.195 125.51C51.969 125.51 50.331 127.078 50.331 129.29C50.331 131.502 51.969 133.084 54.195 133.084ZM54.195 131.908C52.767 131.908 51.689 130.872 51.689 129.29C51.689 127.708 52.767 126.686 54.195 126.686C55.623 126.686 56.687 127.708 56.687 129.29C56.687 130.872 55.623 131.908 54.195 131.908ZM65.9277 125.58V126.728C65.2977 125.916 64.2897 125.51 63.1837 125.51C61.0417 125.51 59.4177 126.952 59.4177 129.094C59.4177 131.236 61.0417 132.692 63.1837 132.692C64.2477 132.692 65.2137 132.314 65.8577 131.544V132.132C65.8577 133.812 65.0597 134.624 63.3097 134.624C62.2177 134.624 61.1397 134.246 60.4537 133.658L59.8097 134.694C60.6217 135.422 61.9937 135.8 63.3517 135.8C65.8717 135.8 67.2017 134.61 67.2017 131.992V125.58H65.9277ZM63.3377 131.516C61.8397 131.516 60.7757 130.522 60.7757 129.094C60.7757 127.652 61.8397 126.686 63.3377 126.686C64.8217 126.686 65.8857 127.652 65.8857 129.094C65.8857 130.522 64.8217 131.516 63.3377 131.516ZM77.6815 131.6C77.4015 131.824 77.0235 131.95 76.6315 131.95C75.8895 131.95 75.4695 131.502 75.4695 130.704V126.686H77.5975V125.58H75.4695V123.956H74.1255V125.58H72.8655V126.686H74.1255V130.76C74.1255 132.258 74.9795 133.084 76.4775 133.084C77.0795 133.084 77.6955 132.916 78.1015 132.566L77.6815 131.6ZM83.8883 125.51C82.7543 125.51 81.8303 125.916 81.2703 126.63V122.612H79.9263V133H81.2703V129.178C81.2703 127.568 82.1943 126.714 83.6223 126.714C84.8963 126.714 85.6243 127.428 85.6243 128.884V133H86.9683V128.73C86.9683 126.546 85.6943 125.51 83.8883 125.51ZM96.4027 129.332C96.4027 127.05 94.8767 125.51 92.7347 125.51C90.5927 125.51 89.0107 127.092 89.0107 129.29C89.0107 131.502 90.6067 133.084 93.0007 133.084C94.2327 133.084 95.2547 132.664 95.9267 131.88L95.1847 131.012C94.6387 131.614 93.9107 131.908 93.0427 131.908C91.5727 131.908 90.5227 131.04 90.3547 129.738H96.3747C96.3887 129.612 96.4027 129.444 96.4027 129.332ZM92.7347 126.644C94.0367 126.644 94.9747 127.526 95.1147 128.772H90.3547C90.4947 127.512 91.4467 126.644 92.7347 126.644ZM108.141 125.58V126.756C107.539 125.93 106.587 125.51 105.495 125.51C103.325 125.51 101.743 127.022 101.743 129.29C101.743 131.572 103.325 133.084 105.495 133.084C106.545 133.084 107.469 132.678 108.085 131.88V135.716H109.429V125.58H108.141ZM105.607 131.908C104.179 131.908 103.101 130.872 103.101 129.29C103.101 127.722 104.179 126.686 105.607 126.686C107.021 126.686 108.099 127.722 108.099 129.29C108.099 130.872 107.021 131.908 105.607 131.908ZM117.744 125.58V129.416C117.744 131.012 116.848 131.88 115.448 131.88C114.174 131.88 113.446 131.152 113.446 129.696V125.58H112.102V129.85C112.102 132.034 113.376 133.084 115.294 133.084C116.344 133.084 117.268 132.65 117.814 131.88V133H119.088V125.58H117.744ZM122.518 124.152C123.05 124.152 123.428 123.76 123.428 123.256C123.428 122.78 123.036 122.402 122.518 122.402C122 122.402 121.608 122.794 121.608 123.284C121.608 123.774 122 124.152 122.518 124.152ZM121.846 133H123.19V125.58H121.846V133ZM129.19 133.084C130.52 133.084 131.626 132.524 132.214 131.488L131.192 130.844C130.716 131.572 129.988 131.908 129.176 131.908C127.72 131.908 126.628 130.9 126.628 129.29C126.628 127.708 127.72 126.686 129.176 126.686C129.988 126.686 130.716 127.022 131.192 127.75L132.214 127.092C131.626 126.056 130.52 125.51 129.19 125.51C126.908 125.51 125.27 127.078 125.27 129.29C125.27 131.502 126.908 133.084 129.19 133.084ZM139.729 133H141.381L137.951 128.646L141.073 125.58H139.449L135.403 129.276V122.612H134.059V133H135.403V130.97L136.943 129.542L139.729 133ZM149.561 123.634C149.953 123.634 150.317 123.774 150.597 123.984L151.003 122.962C150.625 122.668 150.065 122.528 149.491 122.528C147.909 122.528 147.041 123.48 147.041 124.922V125.58H145.781V126.686H147.041V133H148.385V126.686H150.513V125.58H148.357V124.936C148.357 124.082 148.763 123.634 149.561 123.634ZM155.05 133.084C157.276 133.084 158.9 131.502 158.9 129.29C158.9 127.078 157.276 125.51 155.05 125.51C152.824 125.51 151.186 127.078 151.186 129.29C151.186 131.502 152.824 133.084 155.05 133.084ZM155.05 131.908C153.622 131.908 152.544 130.872 152.544 129.29C152.544 127.708 153.622 126.686 155.05 126.686C156.478 126.686 157.542 127.708 157.542 129.29C157.542 130.872 156.478 131.908 155.05 131.908ZM166.97 133L164.016 129.206L166.816 125.58H165.346L163.316 128.254L161.272 125.58H159.774L162.56 129.206L159.634 133H161.132L163.302 130.158L165.444 133H166.97ZM173.339 124.152C173.871 124.152 174.249 123.76 174.249 123.256C174.249 122.78 173.857 122.402 173.339 122.402C172.821 122.402 172.429 122.794 172.429 123.284C172.429 123.774 172.821 124.152 173.339 124.152ZM171.645 135.8C173.171 135.8 174.011 134.848 174.011 133.336V125.58H172.667V133.364C172.667 134.218 172.275 134.666 171.561 134.666C171.127 134.666 170.735 134.54 170.469 134.316L170.035 135.352C170.413 135.66 171.029 135.8 171.645 135.8ZM182.347 125.58V129.416C182.347 131.012 181.451 131.88 180.051 131.88C178.777 131.88 178.049 131.152 178.049 129.696V125.58H176.705V129.85C176.705 132.034 177.979 133.084 179.897 133.084C180.947 133.084 181.871 132.65 182.417 131.88V133H183.691V125.58H182.347ZM195.732 125.51C194.472 125.51 193.436 126.042 192.876 126.882C192.386 125.958 191.434 125.51 190.3 125.51C189.18 125.51 188.27 125.93 187.738 126.686V125.58H186.45V133H187.794V129.178C187.794 127.568 188.676 126.714 190.02 126.714C191.238 126.714 191.938 127.428 191.938 128.884V133H193.282V129.178C193.282 127.568 194.164 126.714 195.508 126.714C196.726 126.714 197.426 127.428 197.426 128.884V133H198.77V128.73C198.77 126.546 197.538 125.51 195.732 125.51ZM205.377 125.51C204.285 125.51 203.333 125.93 202.731 126.756V125.58H201.443V135.716H202.787V131.88C203.403 132.678 204.327 133.084 205.377 133.084C207.547 133.084 209.129 131.572 209.129 129.29C209.129 127.022 207.547 125.51 205.377 125.51ZM205.265 131.908C203.851 131.908 202.773 130.872 202.773 129.29C202.773 127.722 203.851 126.686 205.265 126.686C206.693 126.686 207.771 127.722 207.771 129.29C207.771 130.872 206.693 131.908 205.265 131.908ZM213.314 133.084C215.288 133.084 216.52 132.23 216.52 130.886C216.52 128.002 211.816 129.43 211.816 127.68C211.816 127.092 212.39 126.658 213.566 126.658C214.294 126.658 215.036 126.812 215.708 127.246L216.282 126.182C215.638 125.762 214.546 125.51 213.58 125.51C211.676 125.51 210.486 126.406 210.486 127.736C210.486 130.69 215.176 129.248 215.176 130.914C215.176 131.544 214.658 131.922 213.412 131.922C212.446 131.922 211.438 131.6 210.808 131.152L210.248 132.216C210.864 132.706 212.082 133.084 213.314 133.084ZM225.537 133.084C227.763 133.084 229.387 131.502 229.387 129.29C229.387 127.078 227.763 125.51 225.537 125.51C223.311 125.51 221.673 127.078 221.673 129.29C221.673 131.502 223.311 133.084 225.537 133.084ZM225.537 131.908C224.109 131.908 223.031 130.872 223.031 129.29C223.031 127.708 224.109 126.686 225.537 126.686C226.965 126.686 228.029 127.708 228.029 129.29C228.029 130.872 226.965 131.908 225.537 131.908ZM236.491 125.58L233.887 131.53L231.339 125.58H229.939L233.187 133H234.559L237.807 125.58H236.491ZM245.762 129.332C245.762 127.05 244.236 125.51 242.094 125.51C239.952 125.51 238.37 127.092 238.37 129.29C238.37 131.502 239.966 133.084 242.36 133.084C243.592 133.084 244.614 132.664 245.286 131.88L244.544 131.012C243.998 131.614 243.27 131.908 242.402 131.908C240.932 131.908 239.882 131.04 239.714 129.738H245.734C245.748 129.612 245.762 129.444 245.762 129.332ZM242.094 126.644C243.396 126.644 244.334 127.526 244.474 128.772H239.714C239.854 127.512 240.806 126.644 242.094 126.644ZM249.116 126.826V125.58H247.828V133H249.172V129.304C249.172 127.68 250.068 126.798 251.51 126.798C251.608 126.798 251.706 126.798 251.818 126.812V125.51C250.516 125.51 249.592 125.958 249.116 126.826ZM261.482 131.6C261.202 131.824 260.824 131.95 260.432 131.95C259.69 131.95 259.27 131.502 259.27 130.704V126.686H261.398V125.58H259.27V123.956H257.926V125.58H256.666V126.686H257.926V130.76C257.926 132.258 258.78 133.084 260.278 133.084C260.88 133.084 261.496 132.916 261.902 132.566L261.482 131.6ZM267.689 125.51C266.555 125.51 265.631 125.916 265.071 126.63V122.612H263.727V133H265.071V129.178C265.071 127.568 265.995 126.714 267.423 126.714C268.697 126.714 269.425 127.428 269.425 128.884V133H270.769V128.73C270.769 126.546 269.495 125.51 267.689 125.51ZM280.203 129.332C280.203 127.05 278.677 125.51 276.535 125.51C274.393 125.51 272.811 127.092 272.811 129.29C272.811 131.502 274.407 133.084 276.801 133.084C278.033 133.084 279.055 132.664 279.727 131.88L278.985 131.012C278.439 131.614 277.711 131.908 276.843 131.908C275.373 131.908 274.323 131.04 274.155 129.738H280.175C280.189 129.612 280.203 129.444 280.203 129.332ZM276.535 126.644C277.837 126.644 278.775 127.526 278.915 128.772H274.155C274.295 127.512 275.247 126.644 276.535 126.644ZM41.274 153H42.618V142.612H41.274V153ZM48.0862 145.51C46.8962 145.51 45.7902 145.846 45.0202 146.462L45.5802 147.47C46.1542 146.98 47.0502 146.672 47.9322 146.672C49.2622 146.672 49.9202 147.33 49.9202 148.464V148.73H47.7922C45.5802 148.73 44.8102 149.71 44.8102 150.9C44.8102 152.188 45.8742 153.084 47.5542 153.084C48.7162 153.084 49.5422 152.692 49.9902 152.02V153H51.2642V148.52C51.2642 146.49 50.1162 145.51 48.0862 145.51ZM47.7782 152.048C46.7562 152.048 46.1402 151.586 46.1402 150.844C46.1402 150.214 46.5182 149.696 47.8482 149.696H49.9202V150.732C49.5842 151.586 48.7862 152.048 47.7782 152.048ZM54.9593 151.894L59.3413 146.462V145.58H53.3213V146.686H57.6193L53.2373 152.132V153H59.4533V151.894H54.9593ZM66.5654 145.58L64.0034 151.516L61.4134 145.58H60.0134L63.2894 152.986L63.0514 153.504C62.6874 154.358 62.2814 154.652 61.6374 154.652C61.1334 154.652 60.6714 154.456 60.3074 154.106L59.7334 155.114C60.1954 155.562 60.9234 155.8 61.6374 155.8C62.7714 155.8 63.6254 155.31 64.2834 153.742L67.8814 145.58H66.5654ZM78.9515 142.612V146.7C78.3355 145.902 77.4115 145.51 76.3615 145.51C74.1915 145.51 72.6095 147.022 72.6095 149.29C72.6095 151.558 74.1915 153.084 76.3615 153.084C77.4535 153.084 78.4055 152.664 79.0075 151.824V153H80.2955V142.612H78.9515ZM76.4735 151.908C75.0455 151.908 73.9675 150.872 73.9675 149.29C73.9675 147.708 75.0455 146.686 76.4735 146.686C77.8875 146.686 78.9655 147.708 78.9655 149.29C78.9655 150.872 77.8875 151.908 76.4735 151.908ZM86.2165 153.084C88.4425 153.084 90.0665 151.502 90.0665 149.29C90.0665 147.078 88.4425 145.51 86.2165 145.51C83.9905 145.51 82.3525 147.078 82.3525 149.29C82.3525 151.502 83.9905 153.084 86.2165 153.084ZM86.2165 151.908C84.7885 151.908 83.7105 150.872 83.7105 149.29C83.7105 147.708 84.7885 146.686 86.2165 146.686C87.6445 146.686 88.7085 147.708 88.7085 149.29C88.7085 150.872 87.6445 151.908 86.2165 151.908ZM97.9492 145.58V146.728C97.3192 145.916 96.3112 145.51 95.2052 145.51C93.0632 145.51 91.4392 146.952 91.4392 149.094C91.4392 151.236 93.0632 152.692 95.2052 152.692C96.2692 152.692 97.2352 152.314 97.8792 151.544V152.132C97.8792 153.812 97.0812 154.624 95.3312 154.624C94.2392 154.624 93.1612 154.246 92.4752 153.658L91.8312 154.694C92.6432 155.422 94.0152 155.8 95.3732 155.8C97.8932 155.8 99.2232 154.61 99.2232 151.992V145.58H97.9492ZM95.3592 151.516C93.8612 151.516 92.7972 150.522 92.7972 149.094C92.7972 147.652 93.8612 146.686 95.3592 146.686C96.8432 146.686 97.9072 147.652 97.9072 149.094C97.9072 150.522 96.8432 151.516 95.3592 151.516Z" fill="#737373"/>
<rect x="0.5" y="0.5" width="327" height="192" stroke="#E8E8E8"/>
<defs>
<clipPath id="clip0_993_609">
<rect width="209" height="48" fill="white" transform="translate(40 35)"/>
</clipPath>
<clipPath id="clip1_993_609">
<rect width="48" height="37.92" fill="white" transform="translate(40 40)"/>
</clipPath>
</defs>
</svg>
